<svg width="757" height="419" viewBox="0 0 757 419" fill="none" xmlns="http://www.w3.org/2000/svg">
<g clip-path="url(#clip0_287_1750)">
<path d="M99.6782 223.249L99.457 226.918L235.745 235.134L235.966 231.465L99.6782 223.249Z" fill="url(#paint0_linear_287_1750)"/>
<path d="M665.374 223.281L542.193 228.336L542.344 232.009L665.524 226.953L665.374 223.281Z" fill="url(#paint1_linear_287_1750)"/>
<path d="M169.762 117.59L167.453 120.449L259.969 195.18L262.279 192.321L169.762 117.59Z" fill="url(#paint2_linear_287_1750)"/>
<path d="M209.751 310.043L94.022 337.443L94.8688 341.02L210.598 313.62L209.751 310.043Z" fill="url(#paint3_linear_287_1750)"/>
<path d="M556.623 311.72L555.72 315.283L661.455 342.078L662.358 338.515L556.623 311.72Z" fill="url(#paint4_linear_287_1750)"/>
<path d="M579.689 129.253L529.987 178.955L532.586 181.554L582.288 131.852L579.689 129.253Z" fill="url(#paint5_linear_287_1750)"/>
<path d="M429.25 90.2683L412.631 131.988L416.046 133.349L432.665 91.6286L429.25 90.2683Z" fill="url(#paint6_linear_287_1750)"/>
<path d="M321.56 86.0608L318.194 87.5371L341.637 140.993L345.004 139.517L321.56 86.0608Z" fill="url(#paint7_linear_287_1750)"/>
<path d="M516.584 361.032H240.398C209.08 361.032 183.654 335.605 183.654 304.288C183.654 289.19 189.544 274.919 200.268 264.149C208.888 255.575 219.896 250.025 231.787 248.168C231.401 245.586 231.199 243.004 231.199 240.376C231.199 211.641 254.485 188.254 283.174 188.107C295.451 149.429 331.685 122.789 372.605 122.789C406.844 122.789 438.465 141.692 454.831 171.401C465.105 163.02 477.924 158.444 491.414 158.444C523.512 158.444 549.619 184.551 549.619 216.649C549.619 229.459 545.475 241.635 537.885 251.67C559.075 260.243 573.346 280.892 573.346 304.279C573.346 319.377 567.456 333.648 556.732 344.418C545.971 355.132 531.746 361.032 516.593 361.032H516.584Z" fill="#2CABE1"/>
<path d="M516.584 361.491H240.398C208.851 361.491 183.194 335.825 183.194 304.287C183.194 289.042 189.14 274.67 199.937 263.826C208.538 255.28 219.354 249.739 231.254 247.791C230.905 245.319 230.731 242.893 230.731 240.375C230.731 211.557 254.072 187.977 282.825 187.656C288.918 168.698 300.68 152.424 316.862 140.579C333.173 128.642 352.443 122.338 372.587 122.338C406.771 122.338 438.281 140.854 454.941 170.711C465.206 162.505 478.126 157.993 491.386 157.993C523.733 157.993 550.051 184.311 550.051 216.657C550.051 229.329 546.081 241.358 538.574 251.485C559.976 260.399 573.769 281.056 573.769 304.287C573.769 319.532 567.823 333.904 557.026 344.748C546.182 355.545 531.81 361.491 516.565 361.491H516.584ZM372.596 123.248C331.703 123.248 295.938 149.373 283.606 188.244L283.505 188.566H283.174C254.77 188.713 231.659 211.952 231.659 240.375C231.659 242.994 231.852 245.521 232.238 248.103L232.302 248.554L231.852 248.627C219.961 250.474 209.154 255.96 200.59 264.479C189.967 275.148 184.113 289.29 184.113 304.287C184.113 335.329 209.365 360.572 240.398 360.572H516.584C531.581 360.572 545.723 354.718 556.401 344.095C567.024 333.426 572.878 319.284 572.878 304.287C572.878 281.231 559.075 260.748 537.701 252.11L537.14 251.88L537.499 251.402C545.117 241.34 549.141 229.329 549.141 216.657C549.141 184.816 523.237 158.911 491.396 158.911C478.163 158.911 465.27 163.479 455.107 171.767L454.684 172.117L454.418 171.63C437.978 141.792 406.633 123.257 372.596 123.257V123.248Z" fill="white"/>
<path d="M214.861 410.001V382.461H221.22V410.001H214.861Z" fill="#2CABE1"/>
<path d="M245.627 410.001H239.424V398.56C239.424 397.219 239.176 396.235 238.67 395.629C238.165 395.022 237.503 394.719 236.676 394.719C236.235 394.719 235.794 394.811 235.353 394.986C234.912 395.169 234.489 395.417 234.076 395.739C233.662 396.061 233.294 396.447 232.973 396.888C232.651 397.329 232.394 397.807 232.219 398.321V410.001H226.016V389.637H231.604V393.047C232.357 391.834 233.414 390.896 234.783 390.235C236.152 389.573 237.733 389.242 239.516 389.242C240.839 389.242 241.896 389.481 242.695 389.959C243.495 390.437 244.119 391.062 244.561 391.824C245.002 392.587 245.287 393.423 245.434 394.324C245.571 395.234 245.645 396.107 245.645 396.961V409.992L245.627 410.001Z" fill="#2CABE1"/>
<path d="M262.737 408.916C261.883 409.274 260.908 409.614 259.806 409.927C258.703 410.239 257.6 410.395 256.488 410.395C255.716 410.395 254.981 410.294 254.292 410.101C253.603 409.908 253.006 409.596 252.491 409.173C251.976 408.751 251.563 408.181 251.269 407.482C250.975 406.784 250.819 405.948 250.819 404.965V394.332H248.218V389.637H250.819V383.158H257.021V389.637H261.175V394.332H257.021V402.833C257.021 403.503 257.187 403.99 257.527 404.285C257.867 404.579 258.289 404.735 258.804 404.735C259.273 404.735 259.751 404.661 260.238 404.505C260.725 404.349 261.157 404.183 261.515 404L262.719 408.925L262.737 408.916Z" fill="#2CABE1"/>
<path d="M274.371 410.386C272.662 410.386 271.136 410.111 269.776 409.55C268.416 408.99 267.267 408.236 266.321 407.28C265.374 406.325 264.658 405.222 264.171 403.963C263.674 402.704 263.435 401.399 263.435 400.021C263.435 398.55 263.684 397.154 264.171 395.849C264.658 394.544 265.374 393.395 266.303 392.412C267.231 391.429 268.379 390.657 269.739 390.087C271.099 389.517 272.643 389.232 274.371 389.232C276.098 389.232 277.642 389.517 278.984 390.087C280.326 390.657 281.465 391.429 282.402 392.394C283.33 393.368 284.038 394.48 284.516 395.748C284.994 397.016 285.233 398.348 285.233 399.745C285.233 400.103 285.223 400.462 285.196 400.811C285.168 401.16 285.132 401.463 285.076 401.721H270.024C270.125 403.09 270.631 404.128 271.522 404.845C272.413 405.553 273.433 405.911 274.564 405.911C275.474 405.911 276.337 405.691 277.183 405.249C278.019 404.808 278.589 404.22 278.874 403.467L284.148 404.937C283.349 406.545 282.108 407.85 280.427 408.852C278.745 409.863 276.723 410.368 274.371 410.368V410.386ZM278.681 397.898C278.552 396.602 278.083 395.582 277.284 394.838C276.484 394.084 275.483 393.717 274.297 393.717C273.112 393.717 272.083 394.103 271.292 394.865C270.502 395.628 270.043 396.648 269.914 397.907H278.681V397.898Z" fill="#2CABE1"/>
<path d="M300.983 394.948C299.485 394.976 298.125 395.224 296.912 395.683C295.699 396.152 294.817 396.85 294.275 397.778V410H288.072V389.637H293.779V393.744C294.477 392.375 295.378 391.3 296.471 390.528C297.574 389.756 298.741 389.352 299.982 389.324H300.606C300.735 389.324 300.864 389.333 300.992 389.361V394.948H300.983Z" fill="#2CABE1"/>
<path d="M323.212 410.001H317.009V398.56C317.009 397.219 316.761 396.235 316.256 395.629C315.75 395.022 315.089 394.719 314.262 394.719C313.821 394.719 313.38 394.811 312.938 394.986C312.497 395.169 312.075 395.417 311.661 395.739C311.248 396.061 310.88 396.447 310.558 396.888C310.237 397.329 309.98 397.807 309.805 398.321V410.001H303.602V389.637H309.189V393.047C309.943 391.834 311 390.896 312.369 390.235C313.738 389.573 315.319 389.242 317.101 389.242C318.425 389.242 319.481 389.481 320.281 389.959C321.08 390.437 321.705 391.062 322.146 391.824C322.587 392.587 322.872 393.423 323.019 394.324C323.157 395.234 323.231 396.107 323.231 396.961V409.992L323.212 410.001Z" fill="#2CABE1"/>
<path d="M337.061 410.386C335.351 410.386 333.826 410.111 332.466 409.55C331.106 408.99 329.957 408.236 329.011 407.28C328.064 406.325 327.347 405.222 326.86 403.963C326.364 402.704 326.125 401.399 326.125 400.021C326.125 398.55 326.373 397.154 326.86 395.849C327.347 394.544 328.064 393.395 328.992 392.412C329.92 391.429 331.069 390.657 332.429 390.087C333.789 389.517 335.333 389.232 337.061 389.232C338.788 389.232 340.332 389.517 341.674 390.087C343.015 390.657 344.155 391.429 345.092 392.394C346.02 393.368 346.728 394.48 347.206 395.748C347.683 397.016 347.922 398.348 347.922 399.745C347.922 400.103 347.913 400.462 347.886 400.811C347.858 401.16 347.821 401.463 347.766 401.721H332.714C332.815 403.09 333.32 404.128 334.212 404.845C335.103 405.553 336.123 405.911 337.254 405.911C338.163 405.911 339.027 405.691 339.872 405.249C340.709 404.808 341.278 404.22 341.563 403.467L346.838 404.937C346.039 406.545 344.798 407.85 343.116 408.852C341.435 409.863 339.413 410.368 337.061 410.368V410.386ZM341.37 397.898C341.242 396.602 340.773 395.582 339.974 394.838C339.174 394.084 338.172 393.717 336.987 393.717C335.802 393.717 334.772 394.103 333.982 394.865C333.192 395.628 332.732 396.648 332.604 397.907H341.37V397.898Z" fill="#2CABE1"/>
<path d="M363.792 408.916C362.938 409.274 361.964 409.614 360.861 409.927C359.758 410.239 358.655 410.395 357.544 410.395C356.772 410.395 356.037 410.294 355.347 410.101C354.658 409.908 354.061 409.596 353.546 409.173C353.032 408.751 352.618 408.181 352.324 407.482C352.03 406.784 351.874 405.948 351.874 404.965V394.332H349.273V389.637H351.874V383.158H358.077V389.637H362.23V394.332H358.077V402.833C358.077 403.503 358.242 403.99 358.582 404.285C358.922 404.579 359.345 404.735 359.859 404.735C360.328 404.735 360.806 404.661 361.293 404.505C361.78 404.349 362.212 404.183 362.57 404L363.774 408.925L363.792 408.916Z" fill="#2CABE1"/>
<path d="M384.937 410.385C383.2 410.385 381.656 410.101 380.306 409.531C378.946 408.961 377.806 408.189 376.869 407.224C375.941 406.25 375.233 405.129 374.755 403.852C374.277 402.575 374.038 401.233 374.038 399.836C374.038 398.439 374.277 397.098 374.755 395.82C375.233 394.543 375.941 393.413 376.869 392.448C377.797 391.474 378.946 390.702 380.306 390.123C381.666 389.544 383.209 389.25 384.937 389.25C386.665 389.25 388.208 389.544 389.55 390.123C390.892 390.702 392.031 391.483 392.959 392.448C393.887 393.413 394.604 394.543 395.091 395.82C395.578 397.098 395.826 398.439 395.826 399.836C395.826 401.233 395.587 402.575 395.11 403.852C394.632 405.129 393.924 406.259 392.996 407.224C392.068 408.198 390.919 408.961 389.559 409.531C388.199 410.101 386.655 410.385 384.928 410.385H384.937ZM380.397 399.836C380.397 401.444 380.82 402.722 381.675 403.696C382.529 404.67 383.614 405.148 384.937 405.148C385.58 405.148 386.178 405.019 386.72 404.762C387.262 404.504 387.731 404.137 388.135 403.677C388.539 403.209 388.852 402.648 389.081 401.986C389.311 401.325 389.431 400.608 389.431 399.836C389.431 398.228 389.008 396.941 388.153 395.977C387.299 395.003 386.224 394.525 384.937 394.525C384.294 394.525 383.687 394.653 383.136 394.911C382.575 395.168 382.098 395.526 381.702 395.995C381.307 396.464 380.986 397.024 380.756 397.686C380.526 398.347 380.407 399.064 380.407 399.836H380.397Z" fill="#2CABE1"/>
<path d="M399.906 410.001V395.996H397.306V391.3H399.906V389.637C399.906 388.369 400.072 387.22 400.412 386.182C400.752 385.153 401.23 384.27 401.845 383.544C402.461 382.818 403.215 382.267 404.097 381.872C404.979 381.486 405.944 381.293 407.01 381.293C408.664 381.293 410.437 381.697 412.321 382.497L411.2 387.156C410.787 386.972 410.327 386.825 409.822 386.706C409.316 386.586 408.848 386.531 408.407 386.531C406.881 386.531 406.118 387.487 406.118 389.398V391.3H410.851V395.996H406.118V410.001H399.916H399.906Z" fill="#2CABE1"/>
<path d="M442.15 388.048H433.769V410.001H427.41V388.048H418.993V382.461H442.15V388.048Z" fill="#2CABE1"/>
<path d="M464.379 410.001H458.176V398.561C458.176 397.246 457.919 396.272 457.404 395.647C456.89 395.023 456.173 394.719 455.272 394.719C454.914 394.719 454.519 394.802 454.087 394.967C453.664 395.133 453.241 395.381 452.846 395.703C452.442 396.024 452.074 396.41 451.744 396.851C451.404 397.292 451.146 397.779 450.972 398.322V410.001H444.769V381.68H450.972V393.047C451.725 391.834 452.708 390.897 453.94 390.235C455.171 389.573 456.522 389.243 457.992 389.243C459.362 389.243 460.464 389.481 461.31 389.959C462.146 390.437 462.798 391.044 463.249 391.779C463.699 392.514 464.002 393.341 464.158 394.26C464.315 395.179 464.388 396.079 464.388 396.952V409.983L464.379 410.001Z" fill="#2CABE1"/>
<path d="M468.496 387.304V381.68H474.699V387.304H468.496ZM468.496 410.001V389.638H474.699V410.001H468.496Z" fill="#2CABE1"/>
<path d="M498.6 410.001H492.397V398.56C492.397 397.219 492.149 396.235 491.644 395.629C491.138 395.022 490.477 394.719 489.65 394.719C489.209 394.719 488.767 394.811 488.326 394.986C487.885 395.169 487.463 395.417 487.049 395.739C486.636 396.061 486.268 396.447 485.946 396.888C485.625 397.329 485.367 397.807 485.193 398.321V410.001H478.99V389.637H484.577V393.047C485.331 391.834 486.387 390.896 487.757 390.235C489.126 389.573 490.706 389.242 492.489 389.242C493.812 389.242 494.869 389.481 495.669 389.959C496.468 390.437 497.093 391.062 497.534 391.824C497.975 392.587 498.26 393.423 498.407 394.324C498.545 395.234 498.618 396.107 498.618 396.961V409.992L498.6 410.001Z" fill="#2CABE1"/>
<path d="M510.62 410.073C509.278 410.073 508.047 409.807 506.935 409.255C505.823 408.713 504.867 407.978 504.086 407.041C503.296 406.113 502.68 405.019 502.248 403.779C501.807 402.538 501.587 401.206 501.587 399.781C501.587 398.283 501.816 396.887 502.285 395.609C502.754 394.332 503.397 393.22 504.224 392.274C505.051 391.327 506.043 390.583 507.21 390.041C508.378 389.498 509.655 389.223 511.052 389.223C512.605 389.223 513.955 389.553 515.104 390.215C516.253 390.877 517.181 391.786 517.879 392.954V389.618H523.273V408.585C523.273 410.138 522.979 411.534 522.4 412.775C521.822 414.016 521.013 415.072 519.974 415.936C518.936 416.8 517.695 417.471 516.253 417.93C514.801 418.399 513.211 418.629 511.483 418.629C509.287 418.629 507.413 418.279 505.86 417.581C504.307 416.883 502.947 415.872 501.789 414.558L505.124 411.185C505.878 412.04 506.806 412.72 507.918 413.225C509.03 413.731 510.215 413.979 511.483 413.979C512.237 413.979 512.945 413.878 513.615 413.666C514.286 413.455 514.884 413.143 515.398 412.72C515.913 412.297 516.326 411.737 516.62 411.047C516.914 410.358 517.071 409.54 517.071 408.585V406.609C516.455 407.748 515.554 408.603 514.397 409.191C513.23 409.77 511.98 410.064 510.629 410.064L510.62 410.073ZM512.752 405.148C513.707 405.148 514.562 404.881 515.315 404.348C516.069 403.815 516.648 403.135 517.061 402.308V398.044C516.648 396.96 516.014 396.096 515.159 395.462C514.305 394.828 513.404 394.507 512.439 394.507C511.768 394.507 511.153 394.654 510.601 394.957C510.041 395.251 509.563 395.655 509.168 396.161C508.773 396.666 508.46 397.245 508.24 397.907C508.019 398.568 507.909 399.248 507.909 399.947C507.909 400.7 508.028 401.389 508.276 402.023C508.525 402.657 508.865 403.209 509.306 403.668C509.747 404.137 510.252 404.495 510.84 404.753C511.419 405.01 512.062 405.139 512.761 405.139L512.752 405.148Z" fill="#2CABE1"/>
<path d="M535.569 410.386C533.832 410.386 532.132 410.111 530.45 409.55C528.769 408.99 527.344 408.19 526.186 407.124L528.401 403.32C529.642 404.174 530.855 404.836 532.031 405.295C533.207 405.764 534.337 405.994 535.422 405.994C536.221 405.994 536.846 405.856 537.287 405.571C537.728 405.286 537.949 404.873 537.949 404.331C537.949 403.788 537.673 403.356 537.113 403.026C536.552 402.704 535.578 402.364 534.181 401.996C532.812 401.61 531.654 401.234 530.708 400.875C529.761 400.517 528.989 400.113 528.401 399.672C527.804 399.23 527.381 398.725 527.124 398.155C526.866 397.586 526.738 396.915 526.738 396.134C526.738 395.104 526.94 394.158 527.354 393.303C527.767 392.449 528.337 391.723 529.063 391.135C529.789 390.537 530.643 390.078 531.645 389.738C532.637 389.398 533.722 389.232 534.889 389.232C536.414 389.232 537.839 389.444 539.18 389.857C540.513 390.271 541.799 391.024 543.04 392.109L540.632 395.83C539.465 395.031 538.436 394.452 537.526 394.084C536.616 393.726 535.743 393.542 534.889 393.542C534.218 393.542 533.648 393.68 533.18 393.947C532.711 394.213 532.481 394.654 532.481 395.242C532.481 395.83 532.729 396.235 533.235 396.52C533.74 396.804 534.677 397.117 536.047 397.448C537.499 397.834 538.721 398.22 539.713 398.615C540.706 399.001 541.514 399.433 542.139 399.91C542.764 400.388 543.214 400.94 543.499 401.555C543.784 402.18 543.922 402.915 543.922 403.77C543.922 405.792 543.168 407.391 541.671 408.585C540.173 409.771 538.142 410.368 535.578 410.368L535.569 410.386Z" fill="#2CABE1"/>
<path d="M292.492 326.956V220.434H321.751V326.956H292.492Z" fill="white"/>
<path d="M375.61 328.454C368.506 328.454 362.276 327.333 356.928 325.082C351.58 322.83 347.077 319.835 343.429 316.076C339.781 312.327 337.024 307.971 335.177 303.027C333.32 298.074 332.402 292.901 332.402 287.497C332.402 282.094 333.32 276.92 335.177 271.967C337.024 267.014 339.771 262.668 343.429 258.909C347.077 255.16 351.58 252.155 356.928 249.904C362.276 247.652 368.506 246.531 375.61 246.531C382.713 246.531 388.815 247.652 394.218 249.904C399.622 252.155 404.143 255.151 407.8 258.909C411.448 262.659 414.196 267.014 416.052 271.967C417.899 276.92 418.827 282.094 418.827 287.497C418.827 292.901 417.899 298.074 416.052 303.027C414.196 307.98 411.448 312.327 407.8 316.076C404.152 319.825 399.622 322.83 394.218 325.082C388.815 327.333 382.612 328.454 375.61 328.454ZM361.66 287.497C361.66 292.8 362.956 296.953 365.566 299.949C368.166 302.954 371.511 304.452 375.619 304.452C379.727 304.452 383.072 302.954 385.672 299.949C388.273 296.944 389.578 292.8 389.578 287.497C389.578 282.195 388.273 278.042 385.672 275.046C383.072 272.041 379.717 270.543 375.619 270.543C371.521 270.543 368.166 272.041 365.566 275.046C362.965 278.051 361.66 282.195 361.66 287.497Z" fill="white"/>
<path d="M501.191 245.934H470.582V326.956H441.323V245.934H410.566V220.434H501.182V245.934H501.191Z" fill="white"/>
<path d="M609.571 140.478C634.155 140.478 654.084 120.548 654.084 95.9644C654.084 71.3804 634.155 51.4512 609.571 51.4512C584.987 51.4512 565.057 71.3804 565.057 95.9644C565.057 120.548 584.987 140.478 609.571 140.478Z" fill="#F0F9FF"/>
<path fill-rule="evenodd" clip-rule="evenodd" d="M626.635 91.2695C626.24 91.683 626.231 92.3263 626.599 92.749C627.545 93.8884 628.161 95.4966 628.161 97.3161C628.161 99.1356 627.536 100.735 626.589 101.874C626.387 102.104 626.304 102.389 626.323 102.683C626.341 102.977 626.488 103.252 626.718 103.445C626.948 103.629 627.242 103.73 627.536 103.703C627.83 103.675 628.096 103.528 628.289 103.298C629.594 101.736 630.375 99.6318 630.375 97.3161C630.375 95.0004 629.603 92.896 628.289 91.3338C628.087 91.0857 627.793 90.9387 627.472 90.9295C627.168 90.9111 626.856 91.0397 626.644 91.2695H626.635Z" fill="#2CABE1"/>
<path fill-rule="evenodd" clip-rule="evenodd" d="M630.651 86.6371C630.265 87.0506 630.256 87.6939 630.633 88.1166C632.608 90.4415 633.867 93.6945 633.867 97.3151C633.867 100.936 632.608 104.189 630.642 106.514C630.44 106.743 630.348 107.028 630.375 107.322C630.394 107.616 630.531 107.892 630.761 108.085C630.991 108.269 631.285 108.37 631.57 108.342C631.864 108.315 632.13 108.177 632.323 107.947C634.657 105.2 636.082 101.441 636.082 97.3151C636.082 93.1891 634.667 89.4307 632.323 86.6739C632.112 86.4258 631.818 86.2787 631.506 86.2695C631.175 86.2787 630.871 86.4074 630.651 86.6371Z" fill="#2CABE1"/>
<path fill-rule="evenodd" clip-rule="evenodd" d="M590.879 91.2786C590.879 91.2786 590.852 91.3153 590.834 91.3337C589.538 92.8959 588.757 95.0002 588.757 97.316C588.757 99.6317 589.538 101.736 590.843 103.298C591.026 103.528 591.302 103.675 591.596 103.703C591.89 103.73 592.194 103.647 592.414 103.445C592.644 103.261 592.782 102.977 592.809 102.683C592.828 102.388 592.736 102.094 592.543 101.874C591.596 100.734 590.971 99.1263 590.971 97.316C590.971 95.5057 591.596 93.8975 592.543 92.7488C592.938 92.2894 592.892 91.6002 592.442 91.205C591.991 90.8099 591.293 90.8283 590.879 91.2786Z" fill="#2CABE1"/>
<path fill-rule="evenodd" clip-rule="evenodd" d="M586.882 86.6369C586.882 86.6369 586.845 86.6737 586.836 86.692C584.493 89.4305 583.069 93.1889 583.069 97.3241C583.069 101.459 584.493 105.209 586.827 107.956C587.011 108.186 587.296 108.333 587.58 108.351C587.875 108.379 588.178 108.278 588.389 108.094C588.619 107.91 588.757 107.625 588.775 107.331C588.793 107.037 588.692 106.743 588.509 106.523C586.533 104.198 585.283 100.936 585.283 97.3241C585.283 93.7127 586.542 90.4505 588.518 88.1256C588.913 87.6661 588.876 86.9861 588.426 86.5818C587.985 86.1682 587.296 86.1958 586.882 86.6277V86.6369Z" fill="#2CABE1"/>
<path fill-rule="evenodd" clip-rule="evenodd" d="M599.288 82.0886C596.531 84.827 594.803 88.6497 594.803 92.8493V98.4456C594.803 99.8424 594.518 101.938 593.894 103.546C593.581 104.345 593.186 105.025 592.763 105.457C592.341 105.889 591.973 106.064 591.458 106.064C590.843 106.064 590.346 106.56 590.346 107.175V113.213C590.346 113.829 590.843 114.325 591.458 114.325H604.443C604.921 116.76 606.988 118.653 609.552 118.653C612.116 118.653 614.202 116.751 614.68 114.325H627.655C628.271 114.325 628.767 113.829 628.767 113.213V107.175C628.767 106.56 628.271 106.064 627.655 106.064C627.15 106.064 626.773 105.889 626.35 105.457C625.937 105.034 625.533 104.364 625.22 103.546C624.586 101.938 624.31 99.824 624.31 98.4456V92.8493C624.31 85.7092 619.357 79.6718 612.75 78.1739V76.6668C612.75 74.8657 611.363 73.2852 609.552 73.2852C607.742 73.2852 606.354 74.8657 606.354 76.6668V78.1739C603.634 78.7896 601.199 80.168 599.269 82.0886H599.288ZM600.841 83.6599C602.669 81.8496 605.031 80.5907 607.641 80.1772C608.174 80.0853 608.569 79.6258 608.569 79.0836V76.6668C608.569 75.9776 609.065 75.4998 609.552 75.4998C610.039 75.4998 610.536 75.9776 610.536 76.6668V79.0836C610.536 79.6258 610.931 80.0945 611.464 80.168C617.437 81.1145 622.086 86.4351 622.086 92.8401V98.4364C622.086 100.109 622.371 102.36 623.152 104.354C623.538 105.347 624.044 106.275 624.779 107.019C625.266 107.506 625.863 107.901 626.553 108.104V112.092H592.58V108.104C593.26 107.892 593.866 107.497 594.353 107.01C595.088 106.275 595.594 105.347 595.98 104.345C596.751 102.36 597.036 100.1 597.036 98.4364V92.8401C597.036 89.247 598.507 85.9848 600.85 83.6599H600.841ZM606.722 114.306H612.41C612.015 115.565 610.912 116.42 609.561 116.42C608.211 116.42 607.117 115.556 606.722 114.306Z" fill="#2CABE1"/>
<path fill-rule="evenodd" clip-rule="evenodd" d="M600.207 85.8096C599.067 86.9398 598.378 88.548 598.378 90.3215C598.378 90.6615 598.396 91.0015 598.461 91.3507C598.507 91.6448 598.672 91.9021 598.902 92.0859C599.132 92.2697 599.444 92.334 599.729 92.2697C600.023 92.2237 600.28 92.0491 600.455 91.8102C600.62 91.5621 600.694 91.268 600.629 90.974C600.602 90.7718 600.583 90.5513 600.583 90.3123C600.583 89.035 601.116 87.9507 601.907 87.2431C602.136 87.0409 602.274 86.7744 602.293 86.4804C602.311 86.1863 602.21 85.8923 602.017 85.6717C601.815 85.4512 601.539 85.3133 601.245 85.295C600.951 85.2766 600.657 85.3868 600.446 85.5798C600.354 85.6625 600.28 85.7269 600.207 85.8096Z" fill="#2CABE1"/>
<path d="M145.527 140.23C170.111 140.23 190.04 120.3 190.04 95.7163C190.04 71.1324 170.111 51.2031 145.527 51.2031C120.943 51.2031 101.014 71.1324 101.014 95.7163C101.014 120.3 120.943 140.23 145.527 140.23Z" fill="#F0F9FF"/>
<path d="M167.545 90.7272C167.048 90.4882 166.451 90.6904 166.212 91.1866C165.973 91.6828 166.175 92.2802 166.672 92.5191C168.078 93.1991 168.951 94.5867 168.951 96.1489C168.951 97.6651 168.114 99.0435 166.773 99.7419C166.286 99.9992 166.093 100.597 166.35 101.084C166.525 101.424 166.874 101.626 167.232 101.626C167.388 101.626 167.545 101.589 167.692 101.515C169.704 100.468 170.954 98.4094 170.945 96.1489C170.945 93.824 169.64 91.7472 167.545 90.7272Z" fill="#2CABE1"/>
<path d="M171.542 86.9691C171.092 86.6474 170.476 86.7485 170.145 87.1988C169.824 87.6491 169.925 88.2648 170.375 88.5956C172.801 90.3415 174.253 93.1719 174.262 96.1584C174.262 99.1541 172.893 101.893 170.485 103.675C170.044 104.006 169.952 104.631 170.274 105.072C170.467 105.339 170.77 105.476 171.073 105.476C171.285 105.476 171.487 105.412 171.671 105.283C174.547 103.151 176.265 99.7422 176.256 96.1584C176.256 92.5378 174.492 89.1102 171.542 86.9874V86.9691Z" fill="#2CABE1"/>
<path d="M163.244 92.5469V73.7823C163.244 72.3212 162.049 71.1266 160.588 71.1266H148.017V68.4708C148.017 67.1843 147.117 66.293 145.922 66.293C145.757 66.293 145.582 66.3113 145.408 66.3481L124.649 70.6028C123.215 70.8968 122.039 72.3304 122.039 73.7915L122.011 118.341C122.011 119.803 123.178 121.245 124.612 121.539L145.371 125.794C145.545 125.831 145.72 125.849 145.885 125.849C147.08 125.849 147.981 124.958 147.981 123.671V121.016H160.579C162.04 121.016 163.235 119.821 163.235 118.36V99.5952C163.832 99.4298 164.393 99.1357 164.861 98.667C166.286 97.2427 166.295 94.927 164.861 93.4934C164.393 93.0248 163.832 92.7307 163.235 92.5653L163.244 92.5469ZM145.986 123.653C145.986 123.763 145.959 123.818 145.959 123.827C145.959 123.827 145.94 123.837 145.885 123.837C145.849 123.837 145.812 123.837 145.775 123.827L125.016 119.573C124.52 119.472 124.006 118.847 124.006 118.332L124.033 73.7823C124.033 73.2677 124.548 72.6428 125.044 72.5417L145.803 68.2871C145.803 68.2871 145.876 68.2779 145.913 68.2779C145.95 68.2779 145.977 68.2779 145.977 68.2779C145.977 68.2779 146.014 68.3514 146.014 68.4525L145.986 123.644V123.653ZM160.579 119.003H147.981L148.008 73.1207H160.579C160.938 73.1207 161.241 73.4239 161.241 73.7823V92.5653C160.671 92.7307 160.138 93.0248 159.688 93.4659C158.263 94.8902 158.263 97.2059 159.688 98.6395C160.138 99.0897 160.671 99.3746 161.241 99.54V118.323C161.241 118.681 160.938 118.985 160.579 118.985V119.003ZM163.455 97.2335C163.143 97.5459 162.72 97.7205 162.279 97.7205C161.838 97.7205 161.415 97.5459 161.103 97.2335C160.45 96.5811 160.45 95.5335 161.103 94.881C161.415 94.5686 161.838 94.394 162.279 94.394C162.72 94.394 163.143 94.5686 163.455 94.881C163.768 95.1935 163.942 95.6162 163.942 96.0573C163.942 96.4983 163.768 96.9211 163.455 97.2335Z" fill="#2CABE1"/>
<path d="M142.632 95.0645H137.312C136.76 95.0645 136.31 95.5147 136.31 96.0661C136.31 96.6175 136.76 97.0677 137.312 97.0677H142.632C143.184 97.0677 143.634 96.6175 143.634 96.0661C143.634 95.5147 143.184 95.0645 142.632 95.0645Z" fill="#2CABE1"/>
<path d="M49.434 266.399C74.0179 266.399 93.9472 246.47 93.9472 221.886C93.9472 197.302 74.0179 177.373 49.434 177.373C24.85 177.373 4.92078 197.302 4.92078 221.886C4.92078 246.47 24.85 266.399 49.434 266.399Z" fill="#F0F9FF"/>
<path d="M55.5633 234.1C55.4438 235.019 55.0946 235.892 54.5432 236.627C53.6978 229.597 49.1859 227.603 48.9837 227.52C48.7356 227.419 48.4599 227.456 48.2577 227.631C48.0831 227.769 44.2696 231.04 43.5528 237.261C42.7809 236.691 42.1652 235.92 41.7701 235.047C41.6322 234.679 41.2279 234.495 40.8603 234.624C40.6673 234.697 40.5111 234.844 40.4468 235.037C39.1787 238.548 39.7116 242.453 41.8711 245.504C43.7641 248.233 46.5026 249.795 49.3972 249.795H49.728C52.5216 249.795 56.0044 247.948 57.7871 244.3C59.5239 240.9 59.1563 236.802 56.8406 233.769C56.6017 233.457 56.1514 233.411 55.8481 233.65C55.7011 233.76 55.6092 233.925 55.5816 234.109L55.5633 234.1ZM52.4205 247.048C51.7313 247.93 50.6653 248.426 49.5442 248.371C47.9177 248.343 46.7139 247.856 45.9696 246.91C44.9588 245.633 44.9312 243.776 45.0415 242.646C45.3723 242.848 45.749 243.087 46.0339 243.289C46.3555 243.51 46.7966 243.436 47.0172 243.115C47.0907 243.004 47.1366 242.876 47.1458 242.738C47.2929 239.797 48.3312 238.116 48.9469 237.362C50.2243 238.897 50.9778 240.799 51.0972 242.802C51.1156 243.188 51.4464 243.492 51.8324 243.482C51.8875 243.482 51.9518 243.473 52.007 243.455C52.5583 243.262 53.0821 243.014 53.5876 242.729C53.7438 244.263 53.3303 245.807 52.4205 247.057V247.048ZM54.3962 246.441C55.0487 244.87 55.1957 243.133 54.8189 241.479C54.7362 241.102 54.3595 240.854 53.9735 240.946C53.9184 240.955 53.8632 240.983 53.8081 241.01C53.4221 241.203 52.8984 241.507 52.4113 241.746C52.0621 239.513 51.0237 237.436 49.4432 235.828C49.1859 235.589 48.7999 235.57 48.5242 235.791C48.4323 235.864 46.3739 237.528 45.8409 241.488C45.3263 241.167 44.8761 240.909 44.8485 240.9C44.5085 240.707 44.0766 240.827 43.8836 241.157C43.8468 241.213 43.8285 241.277 43.8101 241.35C43.4977 242.802 43.516 244.309 43.856 245.752C41.7149 243.4 40.7868 240.193 41.329 237.059C42.1009 238.042 43.1852 238.924 44.1225 238.98C44.5085 238.998 44.8485 238.704 44.8669 238.318C45.0415 234.854 46.4474 231.573 48.8183 229.046C49.921 229.708 52.9351 232.06 53.2292 238.042C53.2475 238.428 53.5784 238.731 53.9735 238.713C54.0562 238.713 54.1297 238.695 54.2032 238.658C55.1681 238.263 56.0135 237.243 56.519 235.947C58.3568 239.558 57.2265 243.96 54.387 246.45L54.3962 246.441Z" fill="#2CABE1"/>
<path d="M67.7759 194.925H31.285C30.8899 194.925 30.5774 195.238 30.5774 195.633C30.5774 195.78 30.6234 195.918 30.7061 196.037L32.7094 198.886C33.178 199.557 33.9499 199.952 34.7678 199.952H35.0526V203.269C35.0526 205.043 36.4954 206.476 38.2689 206.485H40.8235L41.9906 210.244C42.0825 210.538 42.3582 210.74 42.6614 210.74H56.3903C56.7027 210.74 56.9692 210.538 57.0611 210.244L58.2282 206.485H60.7828C62.5564 206.485 63.9899 205.043 63.9991 203.269V199.952H64.2839C65.1018 199.952 65.8737 199.557 66.3424 198.877L68.3456 196.028C68.5662 195.706 68.4927 195.265 68.171 195.045C68.0516 194.962 67.9045 194.916 67.7667 194.916L67.7759 194.925ZM55.8665 209.325H43.1852L42.303 206.485H56.7487L55.8665 209.325ZM62.5931 203.269C62.5931 204.262 61.7844 205.07 60.792 205.07H38.2597C37.2673 205.07 36.4586 204.262 36.4586 203.269V199.952H62.5839V203.269H62.5931ZM65.1937 198.068C64.9915 198.362 64.6515 198.537 64.2931 198.537H34.7678C34.4094 198.537 34.0694 198.362 33.8672 198.068L32.645 196.331H66.4159L65.1937 198.068Z" fill="#2CABE1"/>
<path d="M40.75 204.06C41.1452 204.06 41.4576 203.748 41.4576 203.353V201.68C41.4576 201.285 41.1452 200.973 40.75 200.973C40.3549 200.973 40.0424 201.285 40.0424 201.68V203.353C40.0424 203.748 40.3549 204.06 40.75 204.06Z" fill="#2CABE1"/>
<path d="M45.1425 204.06C45.5377 204.06 45.8501 203.748 45.8501 203.353V201.68C45.8501 201.285 45.5377 200.973 45.1425 200.973C44.7474 200.973 44.4349 201.285 44.4349 201.68V203.353C44.4349 203.748 44.7474 204.06 45.1425 204.06Z" fill="#2CABE1"/>
<path d="M49.535 204.06C49.9302 204.06 50.2426 203.748 50.2426 203.353V201.68C50.2426 201.285 49.9302 200.973 49.535 200.973C49.1399 200.973 48.8275 201.285 48.8275 201.68V203.353C48.8275 203.748 49.1399 204.06 49.535 204.06Z" fill="#2CABE1"/>
<path d="M53.9184 204.06C54.3135 204.06 54.6259 203.748 54.6259 203.353V201.68C54.6259 201.285 54.3135 200.973 53.9184 200.973C53.5232 200.973 53.2108 201.285 53.2108 201.68V203.353C53.2108 203.748 53.5232 204.06 53.9184 204.06Z" fill="#2CABE1"/>
<path d="M58.3109 204.06C58.706 204.06 59.0184 203.748 59.0184 203.353V201.68C59.0184 201.285 58.706 200.973 58.3109 200.973C57.9157 200.973 57.6033 201.285 57.6033 201.68V203.353C57.6033 203.748 57.9157 204.06 58.3109 204.06Z" fill="#2CABE1"/>
<path d="M30.5682 226.932C30.2374 226.721 29.8055 226.813 29.585 227.134C25.6427 233.503 25.6427 241.552 29.585 247.921C29.7963 248.251 30.2374 248.343 30.5682 248.123C30.899 247.911 30.9909 247.47 30.7704 247.14C27.1314 241.249 27.1314 233.806 30.7704 227.906C30.9817 227.575 30.8899 227.144 30.5682 226.923V226.932Z" fill="#2CABE1"/>
<path d="M34.7678 230.8C34.4553 230.57 34.0142 230.634 33.7753 230.947C31.0461 234.907 31.0461 240.136 33.7753 244.097C34.0051 244.418 34.4461 244.492 34.7586 244.262C35.0802 244.032 35.1537 243.591 34.924 243.279C34.924 243.279 34.9148 243.26 34.9056 243.26C32.544 239.805 32.544 235.247 34.9056 231.792C35.1353 231.48 35.071 231.039 34.7586 230.8H34.7678Z" fill="#2CABE1"/>
<path d="M69.8251 227.135C69.6138 226.804 69.1727 226.721 68.8419 226.933C68.511 227.144 68.4283 227.585 68.6397 227.916C72.2787 233.806 72.2787 241.25 68.6397 247.149C68.4283 247.48 68.5202 247.912 68.8419 248.132C69.1727 248.344 69.6046 248.252 69.8251 247.93C73.7673 241.562 73.7673 233.512 69.8251 227.144V227.135Z" fill="#2CABE1"/>
<path d="M64.6331 230.8C64.3207 231.03 64.2564 231.471 64.4861 231.793C66.8478 235.248 66.8478 239.806 64.4861 243.261C64.2564 243.573 64.3207 244.014 64.6331 244.253C64.9456 244.492 65.3867 244.419 65.6256 244.106C68.3548 240.146 68.3548 234.917 65.6256 230.956C65.3959 230.644 64.9548 230.57 64.6331 230.809V230.8Z" fill="#2CABE1"/>
<path d="M53.2659 220.453C53.2659 218.762 50.8032 214.82 50.3069 214.057C50.0956 213.726 49.6545 213.634 49.3329 213.846C49.2502 213.901 49.1766 213.974 49.1215 214.057C48.6253 214.829 46.1625 218.762 46.1625 220.462C46.1809 222.429 47.7982 224 49.7556 223.982C51.6853 223.963 53.2475 222.401 53.2751 220.462L53.2659 220.453ZM47.5685 220.453C47.5685 219.672 48.6804 217.503 49.7096 215.785C50.7388 217.512 51.8507 219.672 51.8507 220.453C51.8324 221.638 50.8583 222.576 49.6729 222.566C48.515 222.548 47.5777 221.611 47.5593 220.453H47.5685Z" fill="#2CABE1"/>
<path d="M705.728 266.325C730.312 266.325 750.241 246.396 750.241 221.812C750.241 197.228 730.312 177.299 705.728 177.299C681.144 177.299 661.215 197.228 661.215 221.812C661.215 246.396 681.144 266.325 705.728 266.325Z" fill="#F0F9FF"/>
<path fill-rule="evenodd" clip-rule="evenodd" d="M695.243 214.341C695.702 214.488 696.189 214.24 696.346 213.79C697.715 209.645 701.565 206.87 705.93 206.87C711.499 206.87 716.029 211.401 716.029 216.969C716.029 221.27 714.099 223.843 712.556 225.91C711.425 227.408 710.46 228.713 710.46 230.285C710.46 230.386 710.46 230.487 710.46 230.597H706.812V228.594C706.812 228.116 706.426 227.721 705.939 227.721C705.452 227.721 705.066 228.107 705.066 228.594V230.597H701.418C701.418 230.496 701.418 230.395 701.418 230.285C701.418 228.713 700.444 227.418 699.323 225.91C698.183 224.385 696.888 222.667 696.254 220.213C696.134 219.744 695.656 219.469 695.188 219.588C694.719 219.708 694.443 220.186 694.563 220.654C695.289 223.439 696.75 225.387 697.926 226.958C698.9 228.263 699.672 229.292 699.672 230.285C699.672 230.698 699.691 231.112 699.727 231.498V238.877C699.727 238.877 699.727 238.923 699.727 238.95C699.727 238.95 699.727 238.959 699.727 238.969C699.727 239.005 699.727 239.033 699.746 239.06C700.049 240.485 700.821 241.771 701.933 242.699C703.063 243.646 704.487 244.161 705.939 244.161C707.391 244.161 708.825 243.637 709.946 242.699C711.049 241.771 711.83 240.485 712.133 239.06C712.133 239.033 712.142 238.996 712.151 238.969C712.151 238.969 712.151 238.959 712.151 238.95C712.151 238.923 712.151 238.904 712.151 238.877V231.498C712.188 231.112 712.206 230.698 712.206 230.285C712.206 229.292 712.978 228.263 713.952 226.958C715.57 224.808 717.775 221.858 717.775 216.978C717.775 210.454 712.464 205.143 705.939 205.143C700.821 205.143 696.3 208.405 694.701 213.266C694.554 213.725 694.802 214.212 695.252 214.369L695.243 214.341ZM705.93 242.396C704.157 242.396 702.558 241.321 701.804 239.731H710.065C709.312 241.321 707.704 242.396 705.939 242.396H705.93ZM710.396 237.985H701.455V236.028H710.396V237.985ZM710.396 234.282H701.455V232.325H710.396V234.282Z" fill="#2CABE1"/>
<path fill-rule="evenodd" clip-rule="evenodd" d="M705.93 203.561C706.408 203.561 706.803 203.175 706.803 202.688V200.363C706.803 199.885 706.417 199.49 705.93 199.49C705.443 199.49 705.057 199.876 705.057 200.363V202.688C705.057 203.166 705.443 203.561 705.93 203.561Z" fill="#2CABE1"/>
<path fill-rule="evenodd" clip-rule="evenodd" d="M689.334 217.832H691.659C692.137 217.832 692.532 217.446 692.532 216.959C692.532 216.472 692.146 216.086 691.659 216.086H689.334C688.856 216.086 688.461 216.472 688.461 216.959C688.461 217.446 688.847 217.832 689.334 217.832Z" fill="#2CABE1"/>
<path fill-rule="evenodd" clip-rule="evenodd" d="M709.927 218.723C709.927 218.245 709.541 217.85 709.054 217.85H702.815C702.337 217.85 701.942 218.236 701.942 218.723C701.942 219.21 702.328 219.596 702.815 219.596H705.066V221.599C705.066 222.077 705.452 222.472 705.939 222.472C706.426 222.472 706.812 222.086 706.812 221.599V219.596H709.064C709.541 219.596 709.937 219.21 709.937 218.723H709.927Z" fill="#2CABE1"/>
<path fill-rule="evenodd" clip-rule="evenodd" d="M695.224 207.485C695.399 207.659 695.62 207.742 695.84 207.742C696.061 207.742 696.29 207.659 696.456 207.485C696.796 207.145 696.796 206.593 696.456 206.253L694.811 204.609C694.471 204.269 693.92 204.269 693.58 204.609C693.24 204.949 693.24 205.5 693.58 205.84L695.224 207.485Z" fill="#2CABE1"/>
<path fill-rule="evenodd" clip-rule="evenodd" d="M693.589 230.174C693.809 230.174 694.039 230.091 694.204 229.916L695.849 228.272C696.189 227.932 696.189 227.38 695.849 227.04C695.509 226.7 694.958 226.7 694.618 227.04L692.973 228.685C692.633 229.025 692.633 229.576 692.973 229.916C693.148 230.091 693.368 230.174 693.589 230.174Z" fill="#2CABE1"/>
<path fill-rule="evenodd" clip-rule="evenodd" d="M716.029 207.742C716.25 207.742 716.479 207.659 716.645 207.485L718.29 205.84C718.63 205.5 718.63 204.949 718.29 204.609C717.95 204.269 717.398 204.269 717.058 204.609L715.413 206.253C715.073 206.593 715.073 207.145 715.413 207.485C715.588 207.659 715.809 207.742 716.029 207.742Z" fill="#2CABE1"/>
<path fill-rule="evenodd" clip-rule="evenodd" d="M716.011 227.04C715.671 227.38 715.671 227.932 716.011 228.272L717.656 229.916C717.83 230.091 718.051 230.174 718.271 230.174C718.492 230.174 718.722 230.091 718.887 229.916C719.227 229.576 719.227 229.025 718.887 228.685L717.242 227.04C716.902 226.7 716.351 226.7 716.011 227.04Z" fill="#2CABE1"/>
<path fill-rule="evenodd" clip-rule="evenodd" d="M720.21 217.832H722.535C723.013 217.832 723.408 217.446 723.408 216.959C723.408 216.472 723.022 216.086 722.535 216.086H720.21C719.732 216.086 719.337 216.472 719.337 216.959C719.337 217.446 719.723 217.832 720.21 217.832Z" fill="#2CABE1"/>
<path fill-rule="evenodd" clip-rule="evenodd" d="M705.93 224.219C705.452 224.219 705.057 224.614 705.057 225.092C705.057 225.57 705.452 225.965 705.93 225.965C706.408 225.965 706.803 225.57 706.803 225.092C706.803 224.614 706.408 224.219 705.93 224.219Z" fill="#2CABE1"/>
<path fill-rule="evenodd" clip-rule="evenodd" d="M695.84 216.959C695.84 216.481 695.445 216.086 694.967 216.086C694.489 216.086 694.094 216.481 694.094 216.959C694.094 217.437 694.489 217.832 694.967 217.832C695.445 217.832 695.84 217.437 695.84 216.959Z" fill="#2CABE1"/>
<path d="M49.8843 394.095C74.4682 394.095 94.3975 374.166 94.3975 349.582C94.3975 324.998 74.4682 305.068 49.8843 305.068C25.3003 305.068 5.37106 324.998 5.37106 349.582C5.37106 374.166 25.3003 394.095 49.8843 394.095Z" fill="#F0F9FF"/>
<path d="M72.4992 369.136H27.6736C25.7438 369.136 24.1633 367.556 24.1633 365.626V337.754C24.1633 335.825 25.7438 334.244 27.6736 334.244H72.4992C74.429 334.244 76.0096 335.825 76.0096 337.754V365.626C76.0096 367.556 74.429 369.136 72.4992 369.136ZM27.6736 335.871C26.626 335.871 25.7806 336.716 25.7806 337.764V365.635C25.7806 366.683 26.626 367.528 27.6736 367.528H72.4992C73.5468 367.528 74.3922 366.683 74.3922 365.635V337.764C74.3922 336.716 73.5468 335.871 72.4992 335.871H27.6736Z" fill="#2CABE1"/>
<path d="M47.1274 351.253H29.4196C28.9693 351.253 28.6109 350.895 28.6109 350.445V339.5C28.6109 339.05 28.9693 338.691 29.4196 338.691H47.1274C47.5777 338.691 47.9361 339.05 47.9361 339.5V350.445C47.9361 350.895 47.5685 351.253 47.1274 351.253ZM30.2282 349.636H46.3188V340.309H30.2282V349.636Z" fill="#2CABE1"/>
<path d="M55.4989 343.957H51.8508C51.4005 343.957 51.0421 343.599 51.0421 343.148V339.5C51.0421 339.05 51.4005 338.691 51.8508 338.691H55.4989C55.9492 338.691 56.3076 339.05 56.3076 339.5V343.148C56.3076 343.599 55.9492 343.957 55.4989 343.957ZM52.6594 342.34H54.6903V340.309H52.6594V342.34Z" fill="#2CABE1"/>
<path d="M62.9883 343.957H59.3401C58.8898 343.957 58.5314 343.599 58.5314 343.148V339.5C58.5314 339.05 58.8898 338.691 59.3401 338.691H62.9883C63.4385 338.691 63.7969 339.05 63.7969 339.5V343.148C63.7969 343.599 63.4294 343.957 62.9883 343.957ZM60.1488 342.34H62.1796V340.309H60.1488V342.34Z" fill="#2CABE1"/>
<path d="M70.4776 343.957H66.8294C66.3791 343.957 66.0208 343.599 66.0208 343.148V339.5C66.0208 339.05 66.3791 338.691 66.8294 338.691H70.4776C70.9279 338.691 71.2863 339.05 71.2863 339.5V343.148C71.2863 343.599 70.9279 343.957 70.4776 343.957ZM67.6381 342.34H69.6689V340.309H67.6381V342.34Z" fill="#2CABE1"/>
<path d="M55.4989 350.738H51.8508C51.4005 350.738 51.0421 350.38 51.0421 349.929V346.281C51.0421 345.831 51.4005 345.473 51.8508 345.473H55.4989C55.9492 345.473 56.3076 345.831 56.3076 346.281V349.929C56.3076 350.38 55.9492 350.738 55.4989 350.738ZM52.6594 349.121H54.6903V347.09H52.6594V349.121Z" fill="#2CABE1"/>
<path d="M62.9883 350.738H59.3401C58.8898 350.738 58.5314 350.38 58.5314 349.929V346.281C58.5314 345.831 58.8898 345.473 59.3401 345.473H62.9883C63.4385 345.473 63.7969 345.831 63.7969 346.281V349.929C63.7969 350.38 63.4294 350.738 62.9883 350.738ZM60.1488 349.121H62.1796V347.09H60.1488V349.121Z" fill="#2CABE1"/>
<path d="M70.4776 350.738H66.8294C66.3791 350.738 66.0208 350.38 66.0208 349.929V346.281C66.0208 345.831 66.3791 345.473 66.8294 345.473H70.4776C70.9279 345.473 71.2863 345.831 71.2863 346.281V349.929C71.2863 350.38 70.9279 350.738 70.4776 350.738ZM67.6381 349.121H69.6689V347.09H67.6381V349.121Z" fill="#2CABE1"/>
<path d="M55.4989 357.519H51.8508C51.4005 357.519 51.0421 357.161 51.0421 356.711V353.063C51.0421 352.612 51.4005 352.254 51.8508 352.254H55.4989C55.9492 352.254 56.3076 352.612 56.3076 353.063V356.711C56.3076 357.152 55.9492 357.519 55.4989 357.519ZM52.6594 355.902H54.6903V353.871H52.6594V355.902Z" fill="#2CABE1"/>
<path d="M62.9883 357.519H59.3401C58.8898 357.519 58.5314 357.161 58.5314 356.711V353.063C58.5314 352.612 58.8898 352.254 59.3401 352.254H62.9883C63.4385 352.254 63.7969 352.612 63.7969 353.063V356.711C63.7969 357.152 63.4294 357.519 62.9883 357.519ZM60.1488 355.902H62.1796V353.871H60.1488V355.902Z" fill="#2CABE1"/>
<path d="M70.4776 357.519H66.8294C66.3791 357.519 66.0208 357.161 66.0208 356.711V353.063C66.0208 352.612 66.3791 352.254 66.8294 352.254H70.4776C70.9279 352.254 71.2863 352.612 71.2863 353.063V356.711C71.2863 357.152 70.9279 357.519 70.4776 357.519ZM67.6381 355.902H69.6689V353.871H67.6381V355.902Z" fill="#2CABE1"/>
<path d="M55.4989 364.303H51.8508C51.4005 364.303 51.0421 363.944 51.0421 363.494V359.846C51.0421 359.395 51.4005 359.037 51.8508 359.037H55.4989C55.9492 359.037 56.3076 359.395 56.3076 359.846V363.494C56.3076 363.935 55.9492 364.303 55.4989 364.303ZM52.6594 362.685H54.6903V360.654H52.6594V362.685Z" fill="#2CABE1"/>
<path d="M62.9883 364.303H59.3401C58.8898 364.303 58.5314 363.944 58.5314 363.494V359.846C58.5314 359.395 58.8898 359.037 59.3401 359.037H62.9883C63.4385 359.037 63.7969 359.395 63.7969 359.846V363.494C63.7969 363.935 63.4294 364.303 62.9883 364.303ZM60.1488 362.685H62.1796V360.654H60.1488V362.685Z" fill="#2CABE1"/>
<path d="M70.4776 364.303H66.8294C66.3791 364.303 66.0208 363.944 66.0208 363.494V359.846C66.0208 359.395 66.3791 359.037 66.8294 359.037H70.4776C70.9279 359.037 71.2863 359.395 71.2863 359.846V363.494C71.2863 363.935 70.9279 364.303 70.4776 364.303ZM67.6381 362.685H69.6689V360.654H67.6381V362.685Z" fill="#2CABE1"/>
<path d="M47.1274 355.701H29.4196C28.9693 355.701 28.6109 355.343 28.6109 354.893C28.6109 354.442 28.9693 354.084 29.4196 354.084H47.1274C47.5777 354.084 47.9361 354.442 47.9361 354.893C47.9361 355.343 47.5685 355.701 47.1274 355.701Z" fill="#2CABE1"/>
<path d="M47.1274 360.002H29.4196C28.9693 360.002 28.6109 359.644 28.6109 359.193C28.6109 358.743 28.9693 358.385 29.4196 358.385H47.1274C47.5777 358.385 47.9361 358.743 47.9361 359.193C47.9361 359.644 47.5685 360.002 47.1274 360.002Z" fill="#2CABE1"/>
<path d="M47.1274 364.303H29.4196C28.9693 364.303 28.6109 363.944 28.6109 363.494C28.6109 363.044 28.9693 362.686 29.4196 362.686H47.1274C47.5777 362.686 47.9361 363.044 47.9361 363.494C47.9361 363.944 47.5685 364.303 47.1274 364.303Z" fill="#2CABE1"/>
<path d="M52.7697 331.956C52.5675 331.956 52.3562 331.883 52.2 331.717C51.0421 330.559 49.1491 330.559 47.9912 331.717C47.6696 332.039 47.1642 332.039 46.8426 331.717C46.5209 331.396 46.5209 330.89 46.8426 330.569C48.6345 328.777 51.5475 328.777 53.3486 330.569C53.6703 330.89 53.6703 331.396 53.3486 331.717C53.1924 331.873 52.9811 331.956 52.7789 331.956H52.7697Z" fill="#2CABE1"/>
<path d="M54.7914 329.081C54.5892 329.081 54.3778 329.007 54.2216 328.842C53.1189 327.739 51.6486 327.132 50.0864 327.132C48.5242 327.132 47.0539 327.739 45.9512 328.842C45.6296 329.163 45.1242 329.163 44.8025 328.842C44.4809 328.52 44.4809 328.015 44.8025 327.693C46.2177 326.278 48.0831 325.506 50.0772 325.506C52.0713 325.506 53.9459 326.278 55.3519 327.693C55.6735 328.015 55.6735 328.52 55.3519 328.842C55.1957 328.998 54.9843 329.081 54.7822 329.081H54.7914Z" fill="#2CABE1"/>
<path d="M705.287 394.048C729.871 394.048 749.8 374.119 749.8 349.535C749.8 324.951 729.871 305.021 705.287 305.021C680.703 305.021 660.774 324.951 660.774 349.535C660.774 374.119 680.703 394.048 705.287 394.048Z" fill="#F0F9FF"/>
<path d="M714.228 345.684H713.373C713.208 345.096 712.969 344.526 712.675 343.993L713.282 343.387C713.603 343.065 713.769 342.615 713.732 342.155C713.704 341.705 713.511 341.291 713.19 340.97L712.427 340.198C712.124 339.867 711.701 339.674 711.251 339.656C710.8 339.637 710.359 339.803 710.038 340.106L709.431 340.722C708.898 340.428 708.329 340.189 707.74 340.014V339.15C707.731 338.7 707.538 338.268 707.207 337.956C706.877 337.643 706.436 337.487 705.985 337.505H704.901C704.451 337.487 704.01 337.652 703.679 337.965C703.348 338.277 703.155 338.7 703.146 339.15V340.014C702.558 340.179 701.988 340.418 701.455 340.722L700.848 340.115C700.518 339.803 700.086 339.646 699.635 339.656C699.185 339.674 698.762 339.867 698.45 340.198L697.687 340.97C697.384 341.291 697.209 341.714 697.191 342.155C697.163 342.615 697.329 343.056 697.641 343.387L698.248 343.993C697.954 344.526 697.724 345.096 697.549 345.684H696.676C696.226 345.702 695.794 345.895 695.491 346.226C695.188 346.557 695.022 346.998 695.041 347.448V348.533C695.022 348.983 695.179 349.424 695.491 349.755C695.794 350.086 696.226 350.279 696.676 350.297H697.522C697.687 350.885 697.926 351.455 698.22 351.988L697.614 352.603C697.301 352.934 697.145 353.385 697.191 353.844C697.219 354.294 697.412 354.708 697.733 355.029L698.496 355.801C698.799 356.132 699.222 356.325 699.672 356.344C700.122 356.362 700.554 356.196 700.885 355.884L701.492 355.268C702.025 355.562 702.594 355.801 703.182 355.976V356.84C703.192 357.29 703.385 357.713 703.706 358.025C704.028 358.338 704.469 358.503 704.919 358.485H705.985C706.436 358.503 706.877 358.338 707.207 358.025C707.538 357.713 707.731 357.29 707.74 356.84V355.976C708.329 355.811 708.898 355.572 709.431 355.268L710.047 355.884C710.378 356.196 710.81 356.353 711.26 356.344C711.71 356.325 712.133 356.132 712.445 355.801L713.208 355.029C713.53 354.717 713.713 354.294 713.75 353.844C713.778 353.385 713.612 352.943 713.3 352.613L712.693 351.997C712.988 351.464 713.217 350.894 713.392 350.306H714.246C714.697 350.288 715.129 350.095 715.432 349.764C715.735 349.433 715.901 348.992 715.882 348.542V347.448C715.901 346.998 715.744 346.557 715.432 346.226C715.129 345.895 714.697 345.702 714.246 345.684H714.228ZM714.522 348.542C714.522 348.781 714.366 348.955 714.228 348.955H712.85C712.537 348.955 712.262 349.176 712.197 349.488C712.023 350.288 711.71 351.05 711.269 351.74C711.095 352.006 711.14 352.355 711.361 352.585L712.335 353.568C712.381 353.614 712.409 353.679 712.409 353.752C712.399 353.872 712.344 353.982 712.262 354.055L711.499 354.827C711.379 354.984 711.168 355.02 711.003 354.919L710.029 353.936C709.808 353.715 709.459 353.679 709.192 353.844C708.512 354.285 707.75 354.607 706.95 354.781C706.638 354.855 706.417 355.14 706.426 355.461V356.849C706.426 356.987 706.261 357.143 706.013 357.143H704.928C704.69 357.143 704.515 356.987 704.515 356.849V355.443C704.515 355.121 704.304 354.836 703.991 354.763C703.192 354.588 702.438 354.267 701.749 353.826C701.482 353.66 701.133 353.697 700.913 353.918L699.939 354.901C699.773 355.002 699.562 354.965 699.442 354.809L698.68 354.037C698.597 353.954 698.542 353.844 698.533 353.734C698.533 353.66 698.551 353.596 698.597 353.541L699.562 352.585C699.792 352.365 699.828 352.006 699.654 351.74C699.213 351.05 698.9 350.288 698.726 349.488C698.661 349.176 698.386 348.955 698.073 348.955H696.695C696.557 348.955 696.401 348.79 696.401 348.542V347.457C696.401 347.218 696.557 347.044 696.695 347.044H698.073C698.386 347.044 698.661 346.823 698.726 346.511C698.9 345.711 699.213 344.949 699.654 344.26C699.828 343.993 699.792 343.635 699.562 343.414L698.588 342.431C698.542 342.376 698.514 342.311 698.523 342.238C698.533 342.118 698.588 342.008 698.671 341.935L699.433 341.163C699.589 341.007 699.819 340.97 699.929 341.071L700.913 342.054C701.133 342.275 701.482 342.311 701.749 342.146C702.429 341.705 703.192 341.383 703.991 341.209C704.304 341.135 704.524 340.85 704.515 340.529V339.159C704.515 339.022 704.68 338.865 704.928 338.865H705.985C706.224 338.865 706.399 339.022 706.399 339.159V340.556C706.399 340.878 706.61 341.163 706.923 341.236C707.722 341.411 708.476 341.732 709.165 342.174C709.431 342.339 709.78 342.302 710.001 342.082L710.975 341.098C711.085 340.988 711.315 341.034 711.471 341.181L712.252 341.907C712.344 341.999 712.399 342.118 712.409 342.247C712.409 342.321 712.39 342.385 712.344 342.44L711.361 343.405C711.14 343.625 711.095 343.984 711.269 344.25C711.71 344.94 712.023 345.702 712.197 346.502C712.262 346.814 712.537 347.035 712.85 347.035H714.228C714.366 347.035 714.522 347.2 714.522 347.448V348.542Z" fill="#2CABE1"/>
<path d="M705.452 343.938C704.377 343.938 703.339 344.351 702.567 345.105C701.804 345.858 701.363 346.896 701.363 347.972C701.363 349.047 701.786 350.085 702.539 350.848C703.302 351.611 704.331 352.042 705.406 352.052C706.481 352.052 707.52 351.629 708.283 350.866C709.045 350.104 709.477 349.074 709.477 347.99C709.477 346.906 709.054 345.895 708.301 345.132C707.547 344.369 706.518 343.938 705.452 343.938ZM705.452 350.701C704.735 350.701 704.046 350.425 703.532 349.92C703.017 349.414 702.732 348.725 702.723 348.008C702.714 347.292 702.999 346.602 703.504 346.088C704.01 345.582 704.699 345.288 705.416 345.288C706.132 345.288 706.821 345.573 707.336 346.079C707.841 346.584 708.126 347.273 708.126 347.99C708.126 348.707 707.841 349.387 707.345 349.892C706.849 350.398 706.16 350.682 705.443 350.692L705.452 350.701Z" fill="#2CABE1"/>
<path d="M721.773 330.292C722.011 329.493 721.938 328.638 721.561 327.894C721.313 327.425 720.936 327.03 720.477 326.754C720.017 326.479 719.494 326.341 718.951 326.35C718.235 326.35 717.536 326.58 716.948 326.993C715.303 328.133 716.011 329.539 716.011 329.539C716.47 330.347 717.27 331 717.941 331.91C717.766 332.029 717.61 332.176 717.472 332.332C717.205 332.176 716.875 332.02 716.792 331.974C716.461 331.799 716.112 331.661 715.744 331.56C715.423 331.478 715.092 331.432 714.761 331.432C714.274 331.423 713.787 331.542 713.364 331.772C711.609 332.755 711.435 334.905 712.464 336.422C713.07 337.322 713.75 337.524 714.256 337.524C714.504 337.524 714.761 337.478 714.991 337.368C715.781 336.909 716.434 336.109 717.334 335.429C717.454 335.604 717.601 335.76 717.766 335.889C717.61 336.164 717.454 336.495 717.408 336.569C717.233 336.899 717.095 337.258 716.994 337.625C716.755 338.425 716.829 339.279 717.205 340.024C717.454 340.502 717.83 340.897 718.29 341.172C718.749 341.448 719.273 341.586 719.815 341.586C720.532 341.586 721.23 341.356 721.818 340.943C723.463 339.803 722.756 338.397 722.756 338.397C722.296 337.589 721.497 336.936 720.826 336.026C721.001 335.907 721.157 335.76 721.295 335.604C721.561 335.76 721.892 335.916 721.975 335.962C722.305 336.137 722.655 336.275 723.022 336.376C723.344 336.458 723.675 336.504 724.006 336.504C724.493 336.513 724.98 336.394 725.402 336.164C727.158 335.181 727.332 333.031 726.303 331.514C725.696 330.623 725.007 330.421 724.511 330.421C724.263 330.421 724.006 330.467 723.776 330.577C722.986 331.037 722.333 331.836 721.433 332.516C721.313 332.341 721.166 332.185 721.001 332.057C721.157 331.781 721.313 331.45 721.359 331.377C721.543 331.037 721.681 330.678 721.782 330.301L721.773 330.292ZM715.368 335.328C715.064 335.631 714.733 335.907 714.384 336.155H714.265C714.035 336.155 713.805 335.98 713.585 335.65C713.254 335.163 713.125 334.565 713.245 333.986C713.346 333.545 713.64 333.159 714.044 332.948C714.265 332.829 714.513 332.773 714.77 332.773C714.991 332.773 715.202 332.801 715.414 332.865C715.68 332.939 715.946 333.04 716.185 333.178L716.286 333.233L716.535 333.361V334.345C716.13 334.657 715.735 334.988 715.368 335.337V335.328ZM717.224 328.932C717.169 328.739 717.224 328.445 717.711 328.105C718.078 327.848 718.51 327.71 718.951 327.701C719.245 327.701 719.54 327.765 719.797 327.921C720.054 328.068 720.256 328.289 720.394 328.555C720.587 328.997 720.624 329.493 720.477 329.952C720.412 330.228 720.311 330.494 720.183 330.752L720.128 330.853L719.999 331.101H719.025C718.713 330.697 718.391 330.301 718.042 329.925C717.738 329.621 717.472 329.291 717.224 328.932ZM719.392 332.801C719.696 332.801 719.99 332.93 720.201 333.15C720.413 333.371 720.532 333.665 720.523 333.968C720.523 334.271 720.394 334.565 720.174 334.777C719.953 334.988 719.659 335.107 719.356 335.107C719.052 335.107 718.758 334.979 718.547 334.767C718.336 334.547 718.207 334.262 718.207 333.95C718.207 333.637 718.336 333.343 718.556 333.132C718.777 332.911 719.08 332.792 719.383 332.801H719.392ZM721.57 339.013C721.589 339.086 721.644 339.417 721.065 339.822C720.697 340.079 720.265 340.217 719.824 340.217C719.53 340.217 719.236 340.152 718.979 339.996C718.722 339.849 718.52 339.629 718.382 339.362C718.189 338.921 718.152 338.425 718.299 337.965C718.372 337.699 718.474 337.432 718.602 337.184L718.657 337.083L718.786 336.835H719.76C720.073 337.239 720.394 337.635 720.743 338.011C721.047 338.315 721.322 338.655 721.561 339.013H721.57ZM723.408 332.59C723.711 332.296 724.033 332.02 724.382 331.781C724.428 331.772 724.474 331.763 724.52 331.763C724.75 331.763 724.98 331.937 725.2 332.268C725.531 332.755 725.66 333.352 725.54 333.931C725.439 334.372 725.145 334.758 724.741 334.97C724.511 335.089 724.254 335.153 723.996 335.144C723.776 335.144 723.564 335.117 723.353 335.052C723.087 334.979 722.82 334.878 722.581 334.74L722.48 334.685L722.232 334.556V333.573C722.646 333.26 723.041 332.93 723.417 332.58L723.408 332.59Z" fill="#2CABE1"/>
<path d="M685.061 354.846C685.153 355.121 685.401 355.305 685.686 355.305C685.759 355.305 685.833 355.296 685.897 355.269C686.072 355.213 686.21 355.094 686.292 354.929C686.375 354.772 686.384 354.579 686.329 354.414L686.228 354.101C686.191 353.918 686.072 353.752 685.906 353.651C685.741 353.559 685.539 353.532 685.364 353.587C685.181 353.642 685.033 353.78 684.951 353.954C684.868 354.129 684.868 354.331 684.951 354.506L685.061 354.837V354.846Z" fill="#2CABE1"/>
<path d="M698.303 327.581L697.963 327.7C697.65 327.811 697.467 328.132 697.531 328.454C697.586 328.775 697.871 329.014 698.202 329.014C698.285 329.014 698.358 328.996 698.432 328.968L698.735 328.858C699.084 328.729 699.268 328.344 699.148 327.994C699.02 327.654 698.652 327.471 698.303 327.581Z" fill="#2CABE1"/>
<path d="M684.363 352.164C684.436 352.531 684.785 352.77 685.153 352.697C685.521 352.623 685.759 352.274 685.686 351.906C685.668 351.805 685.649 351.695 685.631 351.585C685.622 351.392 685.53 351.208 685.374 351.089C685.217 350.969 685.024 350.914 684.831 350.951C684.638 350.987 684.473 351.098 684.372 351.263C684.271 351.429 684.243 351.631 684.298 351.815C684.317 351.934 684.335 352.044 684.353 352.155L684.363 352.164Z" fill="#2CABE1"/>
<path d="M695.776 328.666L695.473 328.822C695.142 328.997 695.013 329.401 695.188 329.732C695.307 329.952 695.537 330.09 695.785 330.09C695.895 330.09 695.996 330.063 696.097 330.017L696.382 329.87C696.713 329.704 696.842 329.291 696.676 328.96C696.511 328.629 696.107 328.5 695.776 328.666Z" fill="#2CABE1"/>
<path d="M724.318 337.625L724.153 337.322C723.969 337.001 723.555 336.89 723.234 337.065C723.077 337.157 722.967 337.304 722.912 337.469C722.866 337.644 722.884 337.828 722.976 337.984L723.133 338.269C723.316 338.59 723.721 338.71 724.042 338.535C724.198 338.453 724.318 338.305 724.364 338.131C724.41 337.956 724.391 337.773 724.309 337.616L724.318 337.625Z" fill="#2CABE1"/>
<path d="M683.995 349.414C684.023 349.773 684.317 350.049 684.675 350.049H684.721C684.905 350.039 685.07 349.957 685.19 349.819C685.309 349.681 685.364 349.506 685.355 349.332C685.355 349.221 685.355 349.111 685.337 348.992C685.318 348.615 684.997 348.33 684.629 348.348C684.262 348.367 683.968 348.689 683.986 349.056C683.995 349.176 684.004 349.295 684.004 349.414H683.995Z" fill="#2CABE1"/>
<path d="M726.128 346.253H726.202C726.569 346.208 726.836 345.877 726.79 345.509C726.79 345.39 726.762 345.279 726.753 345.169C726.753 344.976 726.661 344.792 726.514 344.673C726.367 344.544 726.174 344.489 725.981 344.517C725.788 344.544 725.623 344.645 725.513 344.811C725.402 344.967 725.366 345.169 725.411 345.353C725.411 345.463 725.439 345.573 725.448 345.693C725.503 346.024 725.779 346.263 726.11 346.263L726.128 346.253Z" fill="#2CABE1"/>
<path d="M724.906 342.789C724.934 342.89 724.961 343 724.989 343.101C725.072 343.395 725.347 343.607 725.65 343.597C725.706 343.597 725.761 343.597 725.816 343.579C726.174 343.487 726.395 343.12 726.303 342.761C726.275 342.651 726.248 342.532 726.22 342.421C726.193 342.228 726.091 342.054 725.926 341.943C725.761 341.833 725.568 341.796 725.375 341.852C725.191 341.897 725.026 342.026 724.943 342.201C724.86 342.375 724.851 342.577 724.915 342.761L724.897 342.789H724.906Z" fill="#2CABE1"/>
<path d="M700.986 367.784L700.674 367.71C700.325 367.646 699.975 367.867 699.893 368.216C699.81 368.565 700.012 368.923 700.352 369.024L700.692 369.107C700.738 369.107 700.793 369.107 700.839 369.107C701.216 369.144 701.547 368.877 701.593 368.51C701.639 368.142 701.363 367.802 700.986 367.756V367.793V367.784Z" fill="#2CABE1"/>
<path d="M684.032 346.299C684.014 346.41 684.004 346.529 684.004 346.639C683.977 347.007 684.262 347.329 684.629 347.356H684.675C685.034 347.356 685.328 347.081 685.355 346.722C685.355 346.612 685.355 346.502 685.383 346.382C685.41 346.005 685.135 345.684 684.758 345.656C684.381 345.629 684.059 345.904 684.032 346.281V346.309V346.299Z" fill="#2CABE1"/>
<path d="M685.015 344.701C685.337 344.701 685.612 344.471 685.677 344.15C685.695 344.049 685.714 343.938 685.741 343.828C685.805 343.644 685.778 343.442 685.686 343.277C685.594 343.111 685.429 342.992 685.236 342.955C685.052 342.918 684.85 342.955 684.693 343.075C684.537 343.185 684.436 343.359 684.418 343.552C684.399 343.663 684.372 343.782 684.353 343.892C684.317 344.095 684.372 344.297 684.501 344.453C684.629 344.609 684.822 344.701 685.033 344.692H685.015V344.701Z" fill="#2CABE1"/>
<path d="M694.232 331.128C694.48 330.899 694.517 330.531 694.333 330.255C694.122 329.952 693.708 329.869 693.405 330.072L693.12 330.265C693.12 330.265 693.047 330.32 693.019 330.356C693.497 330.476 693.92 330.742 694.232 331.128Z" fill="#2CABE1"/>
<path d="M700.959 326.828L700.619 326.902C700.251 326.984 700.031 327.352 700.113 327.71C700.196 328.078 700.554 328.299 700.922 328.216L701.243 328.151C701.593 328.06 701.804 327.71 701.731 327.361C701.657 327.012 701.317 326.773 700.959 326.828Z" fill="#2CABE1"/>
<path d="M726.266 347.256C725.889 347.256 725.586 347.559 725.586 347.936V348.34C725.586 348.524 725.66 348.689 725.788 348.818C725.917 348.947 726.092 349.02 726.266 349.02C726.441 349.02 726.615 348.947 726.744 348.818C726.873 348.689 726.946 348.515 726.946 348.34V347.936C726.946 347.752 726.873 347.587 726.744 347.458C726.615 347.329 726.441 347.256 726.266 347.256Z" fill="#2CABE1"/>
<path d="M726.147 353.818L726.239 353.478C726.312 353.294 726.303 353.092 726.211 352.917C726.119 352.743 725.963 352.614 725.779 352.568C725.595 352.522 725.393 352.55 725.228 352.66C725.062 352.77 724.961 352.945 724.934 353.138L724.851 353.45C724.777 353.625 724.787 353.827 724.869 354.002C724.952 354.176 725.108 354.305 725.292 354.351C725.476 354.406 725.678 354.369 725.834 354.268C726 354.167 726.11 354.002 726.137 353.809L726.147 353.818Z" fill="#2CABE1"/>
<path d="M726.716 351.106C726.716 350.987 726.744 350.877 726.762 350.766C726.808 350.583 726.772 350.38 726.661 350.224C726.551 350.068 726.376 349.958 726.193 349.93C726 349.903 725.807 349.967 725.66 350.086C725.513 350.215 725.43 350.399 725.43 350.592C725.421 350.702 725.402 350.812 725.384 350.932C725.329 351.299 725.586 351.639 725.954 351.704H726.055C726.395 351.704 726.68 351.446 726.716 351.106Z" fill="#2CABE1"/>
<path d="M708.678 368.023L708.356 368.079C707.979 368.106 707.704 368.428 707.731 368.805C707.759 369.181 708.08 369.457 708.457 369.429H708.558L708.898 369.374C709.266 369.31 709.514 368.97 709.459 368.602C709.404 368.235 709.054 367.987 708.687 368.042L708.678 368.023Z" fill="#2CABE1"/>
<path d="M706.114 368.281H705.774C705.397 368.281 705.094 368.585 705.094 368.961C705.094 369.338 705.397 369.641 705.774 369.641H706.114C706.491 369.632 706.785 369.32 706.766 368.943C706.757 368.566 706.445 368.272 706.068 368.29H706.114V368.281Z" fill="#2CABE1"/>
<path d="M706.086 326.359C705.719 326.359 705.425 326.653 705.406 327.012C705.397 327.379 705.673 327.683 706.04 327.71H706.408C706.785 327.71 707.088 327.425 707.097 327.049C707.097 326.672 706.812 326.369 706.435 326.359H706.077H706.086Z" fill="#2CABE1"/>
<path d="M703.532 368.189L703.192 368.152C703.008 368.134 702.833 368.189 702.695 368.299C702.558 368.409 702.466 368.575 702.447 368.758C702.411 369.135 702.677 369.466 703.054 369.512L703.394 369.549H703.458C703.835 369.567 704.147 369.273 704.166 368.905C704.184 368.529 703.89 368.216 703.523 368.198H703.541L703.532 368.189Z" fill="#2CABE1"/>
<path d="M703.403 327.811H703.467L703.807 327.784C704.184 327.756 704.46 327.425 704.432 327.049C704.405 326.672 704.074 326.396 703.697 326.424L703.357 326.451C702.98 326.47 702.695 326.782 702.714 327.159C702.732 327.536 703.045 327.821 703.421 327.802H703.403V327.811Z" fill="#2CABE1"/>
<path d="M711.131 328.529L711.435 328.621C711.784 328.722 712.151 328.52 712.262 328.17C712.372 327.821 712.179 327.454 711.839 327.334L711.499 327.233C711.14 327.132 710.764 327.334 710.663 327.692C710.562 328.051 710.764 328.428 711.122 328.529H711.131Z" fill="#2CABE1"/>
<path d="M713.612 366.544L713.318 366.672C713.024 366.801 712.859 367.113 712.923 367.426C712.988 367.738 713.263 367.968 713.585 367.968C713.677 367.968 713.759 367.95 713.842 367.913L714.155 367.775C714.495 367.619 714.642 367.224 714.495 366.884C714.338 366.553 713.952 366.397 713.612 366.544Z" fill="#2CABE1"/>
<path d="M711.196 367.445L710.883 367.536C710.552 367.628 710.341 367.941 710.387 368.281C710.433 368.621 710.718 368.869 711.058 368.869C711.122 368.869 711.177 368.869 711.241 368.841L711.581 368.749C711.94 368.648 712.142 368.272 712.041 367.913C711.94 367.555 711.563 367.353 711.205 367.454L711.196 367.445Z" fill="#2CABE1"/>
<path d="M709.165 326.69L708.825 326.634C708.448 326.579 708.099 326.837 708.044 327.204C707.989 327.581 708.246 327.93 708.613 327.985L708.935 328.04H709.054C709.431 328.068 709.753 327.792 709.79 327.425C709.817 327.048 709.541 326.726 709.174 326.69H709.165Z" fill="#2CABE1"/>
<path d="M689.27 341.909C690.621 341.927 691.926 341.412 692.918 340.493C694.774 338.692 695.215 336.138 694.094 333.656C693.855 333.133 693.589 332.618 693.295 332.122C693.139 331.8 692.789 331.616 692.431 331.662C692.073 331.718 691.788 331.993 691.733 332.342C691.705 332.444 691.677 332.535 691.631 332.636C691.595 332.379 691.586 332.122 691.595 331.865V331.405C691.475 329.466 690.722 327.729 689.536 326.627C689.297 326.369 688.921 326.287 688.599 326.415C688.277 326.571 688.075 326.912 688.112 327.27C688.112 327.656 687.937 328.795 686.403 330.918C684.905 332.995 683.067 336.101 684.455 339.069C685.181 340.521 686.568 341.541 688.176 341.807C688.535 341.872 688.902 341.909 689.279 341.909H689.27ZM686.366 339.446C686.081 339.179 685.851 338.858 685.686 338.499C684.583 336.156 686.182 333.509 687.487 331.708C688.268 330.707 688.865 329.586 689.27 328.382C689.867 329.31 690.207 330.385 690.253 331.497V331.837C690.235 332.517 690.198 333.785 691.365 334.134C691.641 334.217 691.926 334.18 692.174 334.042C692.339 333.941 692.486 333.813 692.596 333.656C692.688 333.84 692.78 334.024 692.863 334.217C693.681 336.018 693.469 337.801 692.311 339.161C692.403 338.472 692.302 337.764 692.017 337.13C691.898 336.845 691.751 336.56 691.595 336.294C691.448 336.018 691.144 335.853 690.832 335.889H690.777C690.722 334.934 690.327 334.033 689.665 333.335C689.454 333.105 689.123 333.032 688.829 333.151C688.535 333.289 688.351 333.592 688.378 333.914C688.378 334.052 688.314 334.594 687.579 335.651C686.899 336.625 686.109 338.003 686.348 339.437L686.366 339.446ZM687.818 339.676C687.45 338.867 687.717 337.819 688.691 336.422C688.93 336.082 689.141 335.724 689.325 335.357C689.398 335.614 689.444 335.88 689.463 336.147V336.303C689.463 336.68 689.435 337.562 690.253 337.819C690.446 337.884 690.657 337.874 690.841 337.792C691.016 338.178 691.062 338.6 690.988 339.023C690.915 339.437 690.713 339.823 690.418 340.126C689.693 340.861 688.231 340.65 687.809 339.685L687.818 339.676Z" fill="#2CABE1"/>
<path d="M698.514 367.049L698.459 367.021C698.138 367.306 697.733 367.472 697.31 367.509C697.292 367.803 697.457 368.078 697.733 368.189L698.073 368.308C698.422 368.437 698.808 368.253 698.937 367.904C699.056 367.554 698.873 367.169 698.523 367.049H698.514Z" fill="#2CABE1"/>
<path d="M697.715 365.837C697.908 365.516 697.798 365.102 697.476 364.909L696.428 364.284L697.439 364.192C697.807 364.156 698.082 363.834 698.055 363.457C698.018 363.09 697.696 362.814 697.329 362.842L694.425 363.09L692.339 361.84L694.434 360.59L697.338 360.838H697.393C697.77 360.857 698.082 360.563 698.101 360.195C698.119 359.818 697.825 359.506 697.457 359.488L696.447 359.396L697.402 358.835C697.724 358.642 697.825 358.229 697.641 357.907C697.448 357.585 697.044 357.484 696.722 357.668L695.675 358.293L696.052 357.356C696.116 357.19 696.116 357.006 696.052 356.841C695.987 356.676 695.849 356.547 695.684 356.473C695.344 356.336 694.949 356.501 694.811 356.841L693.773 359.423L691.457 360.82V358.32L693.322 356.032C693.433 355.895 693.488 355.711 693.469 355.536C693.451 355.362 693.359 355.196 693.221 355.077C692.936 354.847 692.514 354.884 692.275 355.169L691.457 356.179V354.737C691.457 354.36 691.154 354.057 690.777 354.057C690.4 354.057 690.097 354.36 690.097 354.737V356.179L689.279 355.169C689.04 354.884 688.627 354.847 688.342 355.077C688.057 355.316 688.011 355.738 688.25 356.023L690.115 358.32V360.48L687.919 359.175L686.972 356.841C686.835 356.501 686.439 356.336 686.099 356.473C685.934 356.538 685.796 356.666 685.723 356.832C685.649 356.997 685.649 357.181 685.723 357.346L686.008 358.054L685.364 357.668C685.043 357.484 684.629 357.585 684.445 357.907C684.252 358.229 684.363 358.642 684.684 358.835L685.594 359.377L684.298 359.488C683.922 359.506 683.637 359.818 683.655 360.195C683.673 360.572 683.986 360.857 684.363 360.838H684.418L687.533 360.572H687.579L689.72 361.831L687.625 363.081L684.721 362.832C684.344 362.805 684.023 363.081 683.986 363.448C683.958 363.825 684.234 364.147 684.602 364.183L685.612 364.275L684.574 364.882C684.252 365.075 684.151 365.488 684.335 365.81C684.528 366.131 684.932 366.233 685.254 366.049L686.403 365.369L686.026 366.306C685.952 366.471 685.952 366.655 686.026 366.821C686.09 366.986 686.228 367.115 686.394 367.188C686.734 367.326 687.129 367.161 687.267 366.821L688.305 364.238L690.106 363.191V365.479L688.241 367.767C688.002 368.052 688.048 368.484 688.332 368.714C688.617 368.943 689.04 368.907 689.279 368.622L690.097 367.611V368.934C690.097 369.311 690.4 369.614 690.777 369.614C691.154 369.614 691.457 369.311 691.457 368.934V367.602L692.275 368.613C692.514 368.897 692.927 368.934 693.221 368.704C693.506 368.466 693.552 368.043 693.313 367.758L691.457 365.461V362.842L693.773 364.22L694.811 366.802C694.866 366.986 694.995 367.142 695.169 367.225C695.344 367.308 695.546 367.317 695.721 367.243C695.895 367.17 696.042 367.023 696.107 366.839C696.171 366.655 696.153 366.453 696.061 366.288L695.684 365.35L696.833 366.03C696.934 366.095 697.053 366.122 697.173 366.122C697.402 366.122 697.623 366.003 697.742 365.81L697.715 365.837Z" fill="#2CABE1"/>
<path d="M715.386 366.434C715.469 366.581 715.616 366.691 715.781 366.737C715.671 366.351 715.597 365.956 715.56 365.561C715.294 365.772 715.22 366.139 715.395 366.434H715.386Z" fill="#2CABE1"/>
<path d="M725.246 356.445L725.375 356.123C725.513 355.783 725.347 355.388 725.007 355.241C724.713 355.122 724.373 355.223 724.199 355.489C724.391 355.939 724.621 356.381 724.879 356.803C725.044 356.739 725.182 356.601 725.246 356.436V356.445Z" fill="#2CABE1"/>
<path d="M722.664 355.149C722.544 354.672 722.388 354.083 721.782 354.074C721.184 354.074 721.019 354.662 720.9 355.085C720.56 356.289 719.87 357.502 719.126 358.779C717.931 360.847 716.691 362.988 716.884 365.395C717.068 367.583 718.712 369.218 721.083 369.558C721.35 369.595 721.626 369.613 721.901 369.613C723.748 369.613 725.807 368.759 726.588 366.682C727.663 363.833 726.027 361.214 724.575 358.908C723.739 357.612 722.967 356.372 722.655 355.149H722.664ZM725.329 366.213C724.686 367.904 722.774 368.446 721.267 368.244C719.898 368.051 718.372 367.178 718.225 365.313C718.06 363.337 719.19 361.38 720.284 359.496C720.835 358.586 721.331 357.64 721.773 356.666C722.25 357.704 722.811 358.696 723.445 359.652C724.833 361.894 726.156 364.008 725.32 366.223L725.329 366.213Z" fill="#2CABE1"/>
<path d="M722.204 361.969C721.892 362.171 721.8 362.584 722.002 362.906C722.002 362.906 722.921 364.413 722.416 365.663C722.269 366.003 722.434 366.398 722.774 366.545C723.114 366.683 723.509 366.527 723.656 366.178C724.447 364.266 723.197 362.263 723.142 362.171C722.94 361.858 722.526 361.767 722.214 361.969H722.204Z" fill="#2CABE1"/>
<path d="M714.43 328.326L714.09 328.188C713.75 328.041 713.355 328.188 713.208 328.528C713.052 328.868 713.208 329.263 713.548 329.419L713.842 329.557C714.081 329.667 714.375 329.621 714.568 329.437C714.504 329.088 714.495 328.739 714.541 328.39C714.504 328.362 714.467 328.344 714.43 328.326Z" fill="#2CABE1"/>
<path d="M724.235 340.62C724.281 340.804 724.41 340.96 724.584 341.052C724.759 341.135 724.961 341.153 725.136 341.08C725.32 341.006 725.457 340.868 725.522 340.685C725.586 340.501 725.577 340.299 725.485 340.133L725.356 339.793C725.264 339.573 725.072 339.426 724.833 339.389C724.603 339.352 724.364 339.444 724.217 339.619C724.189 339.812 724.143 339.995 724.079 340.179C724.079 340.225 724.097 340.262 724.116 340.308L724.235 340.629V340.62Z" fill="#2CABE1"/>
<path d="M307.168 93.878C331.752 93.878 351.681 73.9487 351.681 49.3648C351.681 24.7808 331.752 4.85156 307.168 4.85156C282.584 4.85156 262.654 24.7808 262.654 49.3648C262.654 73.9487 282.584 93.878 307.168 93.878Z" fill="#F0F9FF"/>
<path d="M292.749 74.6636V73.3679C295.571 72.9084 297.629 70.4732 297.629 67.5786V65.5202H301.819C306.396 65.5202 310.053 61.7893 310.053 57.2865V55.9908C311.193 55.5313 312.038 54.6951 312.488 53.6291C313.784 53.6291 314.923 52.7102 315.236 51.4237L315.466 50.4312C317.901 50.9642 324.379 52.7929 326.741 52.7929C331.161 52.7929 334.892 49.8248 335.884 45.4782C337.024 40.4516 333.899 35.3423 328.873 34.2029L321.861 32.6039L319.343 27.8806C319.27 27.6509 319.04 27.5773 318.81 27.5038L311.119 25.6752C310.889 25.6016 310.66 25.6752 310.513 25.8314L306.166 28.9557L302.435 28.1195C297.408 26.8973 292.373 29.9482 291.16 35.0575C290.02 40.1667 293.145 45.1933 298.245 46.4063L303.271 47.5458L303.042 48.5382C302.738 49.7604 303.271 51.0561 304.493 51.7361C304.42 52.8021 304.723 53.7945 305.412 54.7043V57.2957C305.412 59.2806 303.813 60.8795 301.911 60.8795H297.721V58.8211C297.721 55.9265 295.589 53.4913 292.841 53.0318V51.8097C292.841 51.3502 292.538 51.0469 292.079 51.0469C291.619 51.0469 291.316 51.3502 291.316 51.8097V74.6727C291.316 75.1322 291.619 75.4355 292.079 75.4355C292.538 75.4355 292.768 75.0587 292.768 74.6727L292.749 74.6636ZM306.01 52.1864L311.036 53.3259C309.667 55.6876 306.157 54.8513 306.01 52.1864ZM334.432 45.1014C333.596 48.6853 330.472 51.194 326.741 51.194C321.632 51.194 317.901 46.4706 319.049 41.5176C320.042 37.171 324.306 34.6623 328.496 35.5721C332.76 36.638 335.434 40.8284 334.442 45.0922L334.432 45.1014ZM311.119 27.1914L318.13 28.7903L319.886 31.9882L308.151 29.3233L311.119 27.1914ZM292.676 35.425C292.832 34.5888 293.209 33.8261 293.595 33.1369L314.317 37.9337H314.473C314.85 37.9337 315.162 37.704 315.236 37.3272C315.309 36.9505 315.08 36.491 314.703 36.4083L294.587 31.832C296.572 29.7001 299.467 28.8639 302.132 29.5439C325.445 34.9564 318.967 33.431 321.181 33.9639L323.469 34.4969C320.419 35.5629 318.213 38.2278 317.524 41.2051C316.761 44.4857 317.827 47.6836 319.886 49.8891C313.26 48.3636 317.901 49.4296 298.474 44.936C294.358 43.9436 291.693 39.6797 292.685 35.4159L292.676 35.425ZM304.714 47.9226L314.014 50.0545L313.784 51.0469C313.628 51.7361 312.948 52.1864 312.185 52.0394L305.477 50.514C305.173 50.4404 304.87 50.2107 304.641 49.9075C304.181 49.2183 304.641 48.6118 304.714 47.9226ZM297.629 62.3958H301.819C304.641 62.3958 306.846 60.1076 306.846 57.2865V55.8346C307.379 56.0643 307.912 56.2113 308.518 56.2113V57.2773C308.518 61.0082 305.468 63.9855 301.81 63.9855H297.62V62.3866L297.629 62.3958ZM296.104 58.8119V67.5786C296.104 69.637 294.652 71.3921 292.749 71.8424V54.5481C294.734 55.0075 296.104 56.7535 296.104 58.8119Z" fill="#2CABE1"/>
<path d="M326.732 39.3848C324.903 39.3848 323.304 40.6069 322.918 42.4356C322.459 44.5676 323.754 46.6995 325.886 47.159C326.19 47.2325 326.493 47.2325 326.805 47.2325C328.634 47.2325 330.233 46.0103 330.619 44.1816C330.849 43.1892 330.692 42.1232 330.086 41.2134C329.479 40.3037 328.634 39.688 327.651 39.4583C327.347 39.3848 327.044 39.3848 326.732 39.3848ZM328.79 42.0497C329.093 42.5827 329.25 43.2719 329.093 43.8784C328.79 45.1741 327.494 46.0103 326.199 45.707C324.903 45.4038 324.067 44.1081 324.37 42.8124C324.6 41.7464 325.592 40.9102 326.732 40.9102C326.888 40.9102 327.108 40.9102 327.265 40.9837C327.954 41.1399 328.487 41.5167 328.79 42.0497Z" fill="#2CABE1"/>
<path d="M447.673 93.7588C472.257 93.7588 492.186 73.8296 492.186 49.2456C492.186 24.6617 472.257 4.73242 447.673 4.73242C423.089 4.73242 403.16 24.6617 403.16 49.2456C403.16 73.8296 423.089 93.7588 447.673 93.7588Z" fill="#F0F9FF"/>
<path d="M439.715 60.7224C439.715 63.2954 441.323 64.6462 443.832 63.6997C445.302 63.1484 447.195 61.7608 449.465 59.2888C449.722 59.004 449.704 58.5721 449.419 58.3056C449.134 58.0483 448.702 58.0667 448.435 58.3515C446.331 60.6489 444.622 61.9078 443.335 62.3948C442.527 62.6981 441.736 62.7624 441.35 62.0365C441.167 61.6873 441.084 61.1819 441.102 60.5754C441.543 60.0148 441.975 59.4359 442.398 58.857C444.695 55.7326 446.956 52.6633 451.257 54.5839C453.416 55.6131 457.165 57.8002 459.352 59.1326L459.159 66.4106L447.755 69.342C447.755 69.342 447.719 69.3512 447.691 69.3604C446.451 69.7831 445.155 69.9301 443.877 69.7831C442.619 69.6452 441.396 69.2317 440.294 68.5609L429.386 59.877C428.798 59.3807 428.531 58.5169 428.715 57.745C428.899 56.9548 429.505 56.3299 430.286 56.1277C431.04 55.9347 431.867 56.5045 432.639 56.9088L439.706 60.7224H439.715ZM459.61 57.6623C457.809 56.5688 456.017 55.5304 454.216 54.5471L460.409 48.9416C460.593 48.8038 460.703 48.5741 460.685 48.326L459.481 34.4409C459.463 34.156 459.26 33.9079 458.976 33.8344C457.992 33.5587 457.11 33.0992 456.384 32.5019C455.686 31.923 455.153 31.2154 454.831 30.4343C454.739 30.1494 454.482 29.9473 454.17 29.9473H440.909C440.634 29.9473 440.367 30.1127 440.266 30.3884C439.944 31.1878 439.402 31.9138 438.695 32.5019C437.987 33.09 437.123 33.5495 436.158 33.8252C435.864 33.8895 435.625 34.1376 435.598 34.45L434.394 48.3351C434.376 48.5465 434.458 48.7579 434.624 48.9049L442.683 56.2012C441.856 57.2396 441.066 58.3791 440.257 59.4267L433.328 55.6866C432.216 55.0985 431.27 54.4461 429.965 54.7861C427.971 55.3099 426.831 57.405 427.465 59.3532C427.658 59.9321 428.053 60.5845 428.55 60.9705L439.485 69.6728C439.485 69.6728 439.531 69.7004 439.549 69.7188C440.845 70.5182 442.279 71.0053 443.758 71.1707C445.219 71.3361 446.717 71.1707 448.151 70.6836L459.389 67.789V68.0095C459.389 69.4339 460.556 70.6009 461.98 70.6009H465.215C466.64 70.6009 467.807 69.4339 467.807 68.0095V58.7467C467.807 57.3131 466.64 56.1553 465.215 56.1553H461.98C460.96 56.1553 460.051 56.7618 459.628 57.6531L459.61 57.6623ZM452.911 53.8579C452.515 53.6558 452.157 53.472 451.854 53.325H451.835C448.013 51.6066 445.596 52.9298 443.565 55.1353L435.791 48.1054L436.921 35.029C438.814 34.3857 440.468 33.0992 441.341 31.3349H453.701C454.574 33.0992 456.228 34.3857 458.121 35.029L459.251 48.1054L452.901 53.8579H452.911ZM461.962 57.5612H465.197C465.849 57.5612 466.391 58.1034 466.391 58.7559V68.0187C466.391 68.6804 465.849 69.2133 465.197 69.2133H461.962C461.31 69.2133 460.768 68.6712 460.768 68.0187V58.7559C460.768 58.0942 461.31 57.5612 461.962 57.5612ZM447.535 36.1041C444.75 36.1041 442.922 39.008 444.107 41.5167C444.273 41.875 444.502 42.1967 444.769 42.4907L442.83 47.9308C442.664 48.3903 443.014 48.8681 443.492 48.8681H451.597C452.074 48.8681 452.424 48.3903 452.249 47.9124L450.31 42.4907C451.698 41.0021 451.67 38.668 450.218 37.216C449.529 36.536 448.582 36.1041 447.535 36.1041ZM445.844 38.1993C447.351 36.6922 449.933 37.7674 449.933 39.8901C449.933 40.6069 449.612 41.2961 449.069 41.7372C448.84 41.921 448.739 42.2334 448.84 42.5275L450.604 47.4622H444.475L446.239 42.5275C446.331 42.261 446.258 41.9485 446.028 41.7556C444.925 40.855 444.852 39.2101 445.853 38.2085L445.844 38.1993Z" fill="#2CABE1"/>
<path d="M376.584 191.102C367.376 191.102 358.922 194.189 352.324 199.179C351.616 199.703 351.46 200.824 351.984 201.522C352.517 202.221 353.638 202.368 354.327 201.826C360.365 197.258 368.111 194.419 376.584 194.419C385.056 194.419 392.803 197.258 398.84 201.826C399.53 202.368 400.66 202.221 401.184 201.522C401.717 200.824 401.551 199.703 400.844 199.179C394.246 194.18 385.792 191.102 376.584 191.102ZM376.584 201.623C369.958 201.623 363.765 203.627 358.931 207.523C358.168 208.038 357.994 209.232 358.564 209.94C359.143 210.656 360.346 210.73 361.008 210.096C365.189 206.723 370.629 204.941 376.584 204.941C382.539 204.941 387.979 206.723 392.16 210.096C392.821 210.73 394.025 210.656 394.604 209.94C395.183 209.223 394.999 208.028 394.237 207.523C389.412 203.627 383.209 201.623 376.584 201.623ZM376.584 211.594C372.495 211.594 368.589 212.88 365.575 215.26C364.895 215.803 364.766 216.924 365.309 217.604C365.851 218.284 366.972 218.412 367.652 217.87C370.023 215.986 373.193 214.911 376.584 214.911C379.975 214.911 383.136 215.986 385.516 217.87C386.196 218.412 387.317 218.284 387.859 217.604C388.401 216.924 388.273 215.803 387.593 215.26C384.579 212.871 380.682 211.594 376.584 211.594ZM376.584 222.116C373.239 222.116 370.491 224.863 370.491 228.208C370.491 231.553 373.239 234.301 376.584 234.301C379.929 234.301 382.676 231.553 382.676 228.208C382.676 224.863 379.929 222.116 376.584 222.116ZM376.584 225.442C378.137 225.442 379.35 226.664 379.35 228.208C379.35 229.752 378.128 230.974 376.584 230.974C375.04 230.974 373.818 229.752 373.818 228.208C373.818 226.664 375.04 225.442 376.584 225.442Z" fill="white"/>
</g>
<defs>
<linearGradient id="paint0_linear_287_1750" x1="100.12" y1="225.117" x2="237.105" y2="233.375" gradientUnits="userSpaceOnUse">
<stop stop-color="#DEEDFA"/>
<stop offset="1" stop-color="#2CABE1"/>
</linearGradient>
<linearGradient id="paint1_linear_287_1750" x1="663.488" y1="225.169" x2="539.546" y2="230.277" gradientUnits="userSpaceOnUse">
<stop stop-color="#DEEDFA"/>
<stop offset="1" stop-color="#2CABE1"/>
</linearGradient>
<linearGradient id="paint2_linear_287_1750" x1="167.454" y1="156.371" x2="262.288" y2="156.371" gradientUnits="userSpaceOnUse">
<stop stop-color="#DEEDFA"/>
<stop offset="1" stop-color="#2CABE1"/>
</linearGradient>
<linearGradient id="paint3_linear_287_1750" x1="94.0469" y1="325.519" x2="210.623" y2="325.519" gradientUnits="userSpaceOnUse">
<stop stop-color="#DEEDFA"/>
<stop offset="1" stop-color="#2CABE1"/>
</linearGradient>
<linearGradient id="paint4_linear_287_1750" x1="696.534" y1="321.592" x2="589.672" y2="323.887" gradientUnits="userSpaceOnUse">
<stop stop-color="#DEEDFA"/>
<stop offset="1" stop-color="#2CABE1"/>
</linearGradient>
<linearGradient id="paint5_linear_287_1750" x1="152.775" y1="52.1959" x2="83.92" y2="34.4912" gradientUnits="userSpaceOnUse">
<stop stop-color="#DEEDFA"/>
<stop offset="1" stop-color="#2CABE1"/>
</linearGradient>
<linearGradient id="paint6_linear_287_1750" x1="-103.197" y1="-14.6715" x2="-146.599" y2="-24.8193" gradientUnits="userSpaceOnUse">
<stop stop-color="#DEEDFA"/>
<stop offset="1" stop-color="#2CABE1"/>
</linearGradient>
<linearGradient id="paint7_linear_287_1750" x1="500.903" y1="82.2302" x2="552.152" y2="73.3135" gradientUnits="userSpaceOnUse">
<stop stop-color="#DEEDFA"/>
<stop offset="1" stop-color="#2CABE1"/>
</linearGradient>
<clipPath id="clip0_287_1750">
<rect width="757" height="418.648" fill="white" transform="translate(-0.00469971)"/>
</clipPath>
</defs>
</svg>
